<?xml version="1.0" encoding="UTF-8"?>
<svg version="1.1" xmlns="http://www.w3.org/2000/svg" width="657" height="212">
<path d="M0 0 C8.64968674 0.01488143 17.29871405 0.05650314 25.94808483 0.13209057 C29.96457038 0.16635437 33.98067584 0.1914695 37.99731445 0.19555664 C41.87505773 0.19984107 45.75194369 0.22831405 49.62941933 0.27343178 C51.10730301 0.28640246 52.58528932 0.29071592 54.06322289 0.28615379 C56.13707947 0.28124394 58.20843389 0.30734807 60.28198242 0.34057617 C61.46112717 0.34723801 62.64027191 0.35389984 63.85514832 0.36076355 C68.74978628 1.35566929 70.91883165 4.42025016 73.64648438 8.40576172 C74.36288086 9.65510498 74.36288086 9.65510498 75.09375 10.9296875 C75.64248779 11.8781958 76.19122559 12.8267041 76.7565918 13.80395508 C77.3319165 14.8173999 77.90724121 15.83084473 78.5 16.875 C79.10948486 17.93420654 79.71896973 18.99341309 80.34692383 20.0847168 C82.24132027 23.38419932 84.12293428 26.69063119 86 30 C86.57411621 31.01175293 87.14823242 32.02350586 87.73974609 33.06591797 C90.45713491 37.86107746 93.16671729 42.66063052 95.875 47.4609375 C96.390625 48.37456055 96.90625 49.28818359 97.4375 50.22949219 C98.49345174 52.10182662 99.54810596 53.97489334 100.6015625 55.84863281 C102.12279902 58.54920232 103.65384347 61.24396948 105.1875 63.9375 C105.64535889 64.75516846 106.10321777 65.57283691 106.57495117 66.4152832 C107.65981204 68.31053204 108.82203437 70.16117205 110 72 C112.61470109 72 113.44148253 71.0700557 115.5 69.5 C118.77777778 67 118.77777778 67 121 67 C120.98839844 66.01257813 120.97679688 65.02515625 120.96484375 64.0078125 C120.95582031 62.72648437 120.94679688 61.44515625 120.9375 60.125 C120.92589844 58.84882812 120.91429688 57.57265625 120.90234375 56.2578125 C121 53 121 53 122 51 C124 52 124 52 126.5 53.8125 C133.32608457 58.30891847 140.39686719 60.18929262 148.375 61.4375 C156.81176543 62.76140604 164.36485789 65.15997073 171.703125 69.65625 C173.84420127 71.16832195 173.84420127 71.16832195 176 71 C176.31453125 70.18015625 176.6290625 69.3603125 176.953125 68.515625 C177.38109375 67.43796875 177.8090625 66.3603125 178.25 65.25 C178.66765625 64.18265625 179.0853125 63.1153125 179.515625 62.015625 C181 59 181 59 182.89892578 57.14038086 C185.17862551 54.81803278 186.5428715 52.58971003 188.1015625 49.73828125 C188.66939453 48.70968994 189.23722656 47.68109863 189.82226562 46.62133789 C190.71461914 44.98346313 190.71461914 44.98346313 191.625 43.3125 C192.8761945 41.0460962 194.12880476 38.78047343 195.3828125 36.515625 C195.99672852 35.40509766 196.61064453 34.29457031 197.24316406 33.15039062 C200.70450082 26.94345768 204.32596637 20.83213133 207.96875 14.73046875 C208.94354501 13.09473318 209.90954844 11.45376764 210.875 9.8125 C211.41125 8.905 211.9475 7.9975 212.5 7.0625 C212.9434375 6.31097656 213.386875 5.55945313 213.84375 4.78515625 C215 3 215 3 217 1 C219.78408813 0.7215271 219.78408813 0.7215271 223.37744141 0.68115234 C224.03122269 0.67110672 224.68500397 0.6610611 225.3585968 0.65071106 C227.52290962 0.61978211 229.68709823 0.60281746 231.8515625 0.5859375 C233.35087154 0.5672336 234.85016998 0.54766078 236.34945679 0.5272522 C240.29823562 0.47584247 244.24704863 0.43626432 248.19598389 0.39910889 C252.22449251 0.35912444 256.25285794 0.30800683 260.28125 0.2578125 C268.18740233 0.16094864 276.09362529 0.0765776 284 0 C282.71151681 3.99132255 281.33179799 7.44700335 279.171875 11.046875 C278.61886719 11.975 278.06585938 12.903125 277.49609375 13.859375 C276.91988281 14.81328125 276.34367187 15.7671875 275.75 16.75 C274.90888672 18.15765625 274.90888672 18.15765625 274.05078125 19.59375 C271.82081796 23.32237223 269.57768654 27.04296878 267.33251953 30.76245117 C266.80770996 31.63361572 266.28290039 32.50478027 265.7421875 33.40234375 C265.04391846 34.55851196 265.04391846 34.55851196 264.33154297 35.73803711 C262.95902342 38.0696091 261.65795861 40.43062413 260.375 42.8125 C255.87316433 51.15274292 251.10866103 59.34633299 246.39404297 67.56738281 C245.2511314 69.56177351 244.11050486 71.55740631 242.97265625 73.5546875 C233.27216985 90.57829821 223.44196792 107.52837324 213.6171875 124.48046875 C211.80611243 127.60590192 209.99940907 130.7338149 208.1953125 133.86328125 C203.80491687 141.47395842 199.39185201 149.06483798 194.84204102 156.58154297 C192.145601 161.05228168 189.50175153 165.55281129 186.87109375 170.0625 C186.31346344 171.01758957 186.31346344 171.01758957 185.74456787 171.99197388 C183.86452414 175.2125561 181.98742427 178.4347975 180.11474609 181.65966797 C179.76055603 182.26658478 179.40636597 182.87350159 179.04144287 183.49880981 C178.34387075 184.69495095 177.64968742 185.89307534 176.95904541 187.0932312 C174.97130064 190.50684112 172.78614552 193.58917942 170.35546875 196.6953125 C166.95923177 201.83002964 166.95923177 201.83002964 170 212 C153.17 212 136.34 212 119 212 C119 208.37 119 204.74 119 201 C117.02 200.01 117.02 200.01 115 199 C113.46507311 196.61983612 112.12270165 194.31058278 110.8125 191.8125 C110.00833957 190.3323381 109.20231014 188.85319028 108.39453125 187.375 C107.99057129 186.63121094 107.58661133 185.88742188 107.17041016 185.12109375 C105.52386562 182.13711817 103.76897502 179.22529771 102 176.3125 C97.44475267 168.79466872 93.00296583 161.21092564 88.5625 153.625 C88.18780579 152.9848999 87.81311157 152.3447998 87.42706299 151.68530273 C85.94614184 149.15525266 84.46522977 146.62519731 82.98455811 144.09500122 C80.66798208 140.13746685 78.34294685 136.1850541 76.01098633 132.23657227 C63.10176262 110.37162664 50.57310055 88.28263823 37.98962402 66.22924805 C30.30684216 52.7651148 22.6148641 39.30642192 14.875 25.875 C14.27163818 24.82683105 13.66827637 23.77866211 13.04663086 22.69873047 C9.84474017 17.14938495 6.59820678 11.6329279 3.26611328 6.16064453 C2.0835378 4.14255872 1.03509971 2.09630418 0 0 Z M138 117 C137.67 118.32 137.34 119.64 137 121 C137.99 121.495 137.99 121.495 139 122 C139 120.35 139 118.7 139 117 C138.67 117 138.34 117 138 117 Z " fill="#220C7D" transform="translate(0,0)"/>
<path d="M0 0 C8.64968674 0.01488143 17.29871405 0.05650314 25.94808483 0.13209057 C29.96457038 0.16635437 33.98067584 0.1914695 37.99731445 0.19555664 C41.87505773 0.19984107 45.75194369 0.22831405 49.62941933 0.27343178 C51.10730301 0.28640246 52.58528932 0.29071592 54.06322289 0.28615379 C56.13707947 0.28124394 58.20843389 0.30734807 60.28198242 0.34057617 C61.46112717 0.34723801 62.64027191 0.35389984 63.85514832 0.36076355 C68.74978628 1.35566929 70.91883165 4.42025016 73.64648438 8.40576172 C74.36288086 9.65510498 74.36288086 9.65510498 75.09375 10.9296875 C75.64248779 11.8781958 76.19122559 12.8267041 76.7565918 13.80395508 C77.3319165 14.8173999 77.90724121 15.83084473 78.5 16.875 C79.10948486 17.93420654 79.71896973 18.99341309 80.34692383 20.0847168 C82.24132027 23.38419932 84.12293428 26.69063119 86 30 C86.57411621 31.01175293 87.14823242 32.02350586 87.73974609 33.06591797 C90.45713491 37.86107746 93.16671729 42.66063052 95.875 47.4609375 C96.390625 48.37456055 96.90625 49.28818359 97.4375 50.22949219 C98.49345174 52.10182662 99.54810596 53.97489334 100.6015625 55.84863281 C102.12279902 58.54920232 103.65384347 61.24396948 105.1875 63.9375 C105.64535889 64.75516846 106.10321777 65.57283691 106.57495117 66.4152832 C107.65981204 68.31053204 108.82203437 70.16117205 110 72 C112.61470109 72 113.44148253 71.0700557 115.5 69.5 C118.77777778 67 118.77777778 67 121 67 C121.495 65.515 121.495 65.515 122 64 C123.63694631 67.43014659 124.43888842 70.19289815 124 74 C121.70322696 76.61098955 119.35319378 78.64926299 116.66015625 80.81933594 C112.14808096 84.54886453 110.57897798 87.6507664 108.96484375 93.3203125 C107.16242191 98.32622903 103.42576061 102.01224725 100 106 C93.27438582 113.31286555 93.27438582 113.31286555 90.125 122.375 C90.92791961 125.70138124 91.66066888 128.32960326 94.0234375 130.87890625 C98.46870653 133.40023473 104.00978653 132.98538737 109 133 C109.474375 132.13375 109.94875 131.2675 110.4375 130.375 C113.90139647 125.2760475 118.80117758 121.62247355 124.890625 120.4375 C126.76334611 120.27726718 128.64083014 120.16239909 130.51953125 120.10546875 C132.83287259 120.0071062 134.78487594 119.64543242 137 119 C138.96400094 121.67104128 140 123.32942083 140 126.6875 C137.87180915 133.73713221 134.39715196 139.62327706 130 145.5 C120.30314888 158.49012131 118.68438128 170.30768274 118.875 186.0625 C118.88505168 187.51496778 118.89417365 188.9674423 118.90234375 190.41992188 C118.92417983 193.94675682 118.95858851 197.4733342 119 201 C114.48943829 199.06791039 113.01539817 196.01263361 110.8125 191.8125 C110.00833957 190.3323381 109.20231014 188.85319028 108.39453125 187.375 C107.99057129 186.63121094 107.58661133 185.88742188 107.17041016 185.12109375 C105.52386562 182.13711817 103.76897502 179.22529771 102 176.3125 C97.44475267 168.79466872 93.00296583 161.21092564 88.5625 153.625 C88.18780579 152.9848999 87.81311157 152.3447998 87.42706299 151.68530273 C85.94614184 149.15525266 84.46522977 146.62519731 82.98455811 144.09500122 C80.66798208 140.13746685 78.34294685 136.1850541 76.01098633 132.23657227 C63.10176262 110.37162664 50.57310055 88.28263823 37.98962402 66.22924805 C30.30684216 52.7651148 22.6148641 39.30642192 14.875 25.875 C14.27163818 24.82683105 13.66827637 23.77866211 13.04663086 22.69873047 C9.84474017 17.14938495 6.59820678 11.6329279 3.26611328 6.16064453 C2.0835378 4.14255872 1.03509971 2.09630418 0 0 Z " fill="#2B0C8D" transform="translate(0,0)"/>
<path d="M0 0 C2.66363467 1.33181733 4.75598043 3.05124617 7 5 C7 5.66 7 6.32 7 7 C7.556875 7.226875 8.11375 7.45375 8.6875 7.6875 C13.0795794 10.18030182 15.89895945 13.47023367 18 18 C19.216875 17.896875 20.43375 17.79375 21.6875 17.6875 C32.77355093 17.7397106 42.93259856 23.81359403 51 31 C62.79843455 43.32280942 66.6574145 56.37703919 66.3046875 73.05859375 C66.02200068 79.26251812 64.62814463 84.37665143 62 90 C61.7102832 90.62358398 61.42056641 91.24716797 61.12207031 91.88964844 C58.01580579 98.50431367 54.73928518 104.95578711 50.8125 111.125 C44.60487068 121.29530776 41.29136358 132.07897514 43 144 C44.01972084 147.83317919 45.40955741 151.46566443 46.90625 155.13671875 C48 158 48 158 48 161 C31.17 161 14.34 161 -3 161 C-5.18306843 108.60635759 -5.18306843 108.60635759 9.6875 90.25 C14.47622811 84.31543627 17.49680641 79.23503748 16.75 71.4375 C16.52426728 69.95443602 16.28295618 68.47321751 16 67 C15.401875 67.474375 14.80375 67.94875 14.1875 68.4375 C10.92599834 70.03627532 9.29688595 70.18316054 5.75 70.3125 C-0.42466673 70.72914418 -4.43512357 72.88024637 -9 77 C-10.62976344 78.95131136 -11.77179829 80.75719688 -13 83 C-24.17345004 83.11604473 -24.17345004 83.11604473 -28.19921875 80.65625 C-31.62334232 77.00827331 -32.50906199 74.16847519 -32.35424805 69.03588867 C-31.75418396 65.58727774 -29.73301365 63.24482364 -27.5 60.6875 C-26.58105546 59.56199392 -25.66310147 58.43567842 -24.74609375 57.30859375 C-24.05362549 56.47690674 -24.05362549 56.47690674 -23.34716797 55.62841797 C-16.65811473 47.81393122 -16.65811473 47.81393122 -12.75 38.5 C-11.54049704 33.75502686 -8.33331924 31.53041181 -4.6875 28.5625 C-0.49875463 25.26292592 -0.49875463 25.26292592 1.33984375 20.46484375 C0.79277432 17.97736909 0.79277432 17.97736909 -0.12890625 15.5625 C-1.14043257 12.58688895 -1.21606724 10.13423481 -1.1875 7 C-1.18105469 6.0925 -1.17460938 5.185 -1.16796875 4.25 C-1 2 -1 2 0 0 Z " fill="#FAFAFB" transform="translate(122,51)"/>
<path d="M0 0 C18 0 18 0 22.125 3.0625 C23.09883317 4.36354112 24.05738735 5.6761645 25 7 C26.19787359 8.11783749 27.4294463 9.20035116 28.6875 10.25 C32.06518357 13.16090196 35.35333138 16.15875064 38.625 19.1875 C43.59539492 23.77635339 48.68032177 28.21442824 53.84033203 32.58862305 C58.63169456 36.65464831 63.29777153 40.82024136 68 45 C68.33 30.15 68.66 15.3 69 0 C74.94 0 80.88 0 87 0 C87 23.1 87 46.2 87 70 C68 70 68 70 62.3125 65.9375 C60.84594774 64.31750059 59.40583071 62.67296552 58 61 C56.7744668 59.86873858 55.52491943 58.76279739 54.25 57.6875 C53.60804688 57.12675781 52.96609375 56.56601563 52.3046875 55.98828125 C50.50440143 54.4351531 48.6968221 52.89244341 46.8828125 51.35546875 C39.97061054 45.48783828 33.20779719 39.50695878 26.61865234 33.27685547 C26.07160645 32.7613916 25.52456055 32.24592773 24.9609375 31.71484375 C24.48446777 31.26230225 24.00799805 30.80976074 23.51708984 30.34350586 C21.76485241 28.79175777 19.87245433 27.40434075 18 26 C17.67 40.52 17.34 55.04 17 70 C11.39 70 5.78 70 0 70 C0 46.9 0 23.8 0 0 Z " fill="#000000" transform="translate(555,30)"/>
<path d="M0 0 C0.495 0.99 0.495 0.99 1 2 C-0.16821289 4.45507812 -0.16821289 4.45507812 -1.97265625 7.53125 C-2.95202148 9.21347656 -2.95202148 9.21347656 -3.95117188 10.9296875 C-4.65480608 12.11987553 -5.35858292 13.30997925 -6.0625 14.5 C-6.73965499 15.65843202 -7.41609543 16.81728204 -8.09179688 17.9765625 C-21.37405684 40.68702842 -21.37405684 40.68702842 -24 42 C-26.18331425 42.09542522 -28.36930628 42.13190788 -30.5546875 42.140625 C-31.90626639 42.15898676 -33.25782926 42.17856006 -34.609375 42.19921875 C-36.72650579 42.2278943 -38.84262493 42.24999242 -40.95996094 42.25048828 C-53.87795743 42.27188581 -63.72595063 45.5406602 -74.625 52.5 C-94.0812308 64.52463348 -94.0812308 64.52463348 -103 64 C-102.65779356 60.92014205 -102.38070841 59.37865189 -100.14697266 57.15698242 C-97.82969892 54.82890493 -96.47124039 52.61552596 -94.8984375 49.73828125 C-94.33060547 48.70968994 -93.76277344 47.68109863 -93.17773438 46.62133789 C-92.58283203 45.52942139 -91.98792969 44.43750488 -91.375 43.3125 C-90.1238055 41.0460962 -88.87119524 38.78047343 -87.6171875 36.515625 C-87.00327148 35.40509766 -86.38935547 34.29457031 -85.75683594 33.15039062 C-82.29549918 26.94345768 -78.67403363 20.83213133 -75.03125 14.73046875 C-74.05645499 13.09473318 -73.09045156 11.45376764 -72.125 9.8125 C-71.58875 8.905 -71.0525 7.9975 -70.5 7.0625 C-69.83484375 5.93521484 -69.83484375 5.93521484 -69.15625 4.78515625 C-68 3 -68 3 -66 1 C-63.25387573 0.7215271 -63.25387573 0.7215271 -59.71435547 0.68115234 C-59.07032776 0.67110672 -58.42630005 0.6610611 -57.76275635 0.65071106 C-55.63090927 0.61978417 -53.49918829 0.60281806 -51.3671875 0.5859375 C-49.89029854 0.56723344 -48.41342035 0.5476606 -46.93655396 0.5272522 C-43.04695983 0.47584424 -39.15733102 0.43626515 -35.26757812 0.39910889 C-31.29939128 0.35912333 -27.33134978 0.30800622 -23.36328125 0.2578125 C-15.57562041 0.16095074 -7.78788948 0.07657905 0 0 Z " fill="#5614E0" transform="translate(283,0)"/>
<path d="M0 0 C3.87183562 0.26782622 7.21227357 0.98708928 10.91015625 2.1796875 C11.30787231 2.91566162 11.30787231 2.91566162 11.71362305 3.66650391 C17.05213388 13.51994112 22.5000915 23.29352527 28.22265625 32.9296875 C28.75358887 33.82494141 29.28452148 34.72019531 29.83154297 35.64257812 C32.16576559 39.5734618 34.50447824 43.50158487 36.8515625 47.42480469 C38.81649444 50.71347012 40.77023108 54.00858565 42.72265625 57.3046875 C43.33987549 58.33045898 43.95709473 59.35623047 44.59301758 60.41308594 C45.15786865 61.36989258 45.72271973 62.32669922 46.3046875 63.3125 C47.06036011 64.57924561 47.06036011 64.57924561 47.83129883 65.87158203 C48.91015625 68.1796875 48.91015625 68.1796875 48.91015625 72.1796875 C42.31015625 72.1796875 35.71015625 72.1796875 28.91015625 72.1796875 C19.87150931 56.53492565 10.85675882 40.87734527 1.91015625 25.1796875 C-0.91154749 28.562888 -3.24202599 31.96067806 -5.41015625 35.79296875 C-6.02205811 36.86949707 -6.63395996 37.94602539 -7.2644043 39.05517578 C-8.22987183 40.75649658 -8.22987183 40.75649658 -9.21484375 42.4921875 C-9.89520797 43.66227598 -10.57726776 44.83138012 -11.26098633 45.99951172 C-14.22227997 51.07140634 -17.12578597 56.11469201 -19.59375 61.44921875 C-23.67785798 69.85104425 -23.67785798 69.85104425 -27.08984375 72.1796875 C-33.635284 73.95659589 -40.46604681 73.18241658 -47.08984375 72.1796875 C-46.56435475 67.23451045 -45.07086953 63.95544355 -42.50390625 59.71875 C-42.13554657 59.10301117 -41.76718689 58.48727234 -41.38766479 57.85287476 C-40.17420438 55.83004145 -38.94660969 53.81642159 -37.71484375 51.8046875 C-35.96412245 48.94472039 -34.21593077 46.08326356 -32.47265625 43.21875 C-31.80021881 42.11614838 -31.80021881 42.11614838 -31.11419678 40.99127197 C-27.94895653 35.74732831 -25.06991618 30.3988849 -22.26953125 24.953125 C-9.55390949 0.64251438 -9.55390949 0.64251438 0 0 Z " fill="#000000" transform="translate(482.08984375,27.8203125)"/>
<path d="M0 0 C18.17332604 -2.20738477 18.17332604 -2.20738477 24.07470703 1.19677734 C27.62984439 4.32733144 30.22487418 8.1328944 32.76367188 12.10498047 C34.6721849 15.03031185 36.84975193 17.67248763 39.0625 20.375 C39.75472656 21.26960938 40.44695312 22.16421875 41.16015625 23.0859375 C41.76730469 23.71757813 42.37445313 24.34921875 43 25 C43.99 25 44.98 25 46 25 C47.97325064 22.94265344 49.76504189 20.88982688 51.5625 18.6875 C52.10277832 18.05827637 52.64305664 17.42905273 53.19970703 16.78076172 C55.73193884 13.82437548 58.12609257 10.89337497 60.23828125 7.62109375 C63.1537542 3.53303571 65.41126729 0.46101391 70.58007812 -0.45947266 C77.07570532 -0.93810919 83.52330079 -0.60756231 90 0 C88.58113789 2.93801327 87.12476607 5.19470437 84.9375 7.625 C84.31101562 8.32625 83.68453125 9.0275 83.0390625 9.75 C81.6796875 11.25 80.3203125 12.75 78.9609375 14.25 C73.95662244 19.78204283 69.06081693 25.39036418 64.24926758 31.09033203 C63.76997803 31.65478027 63.29068848 32.21922852 62.796875 32.80078125 C62.37760742 33.29747314 61.95833984 33.79416504 61.52636719 34.3059082 C60 36 60 36 57.36938477 38.27294922 C54.42028251 41.66722765 54.35169483 43.3884248 54.29296875 47.83203125 C54.26396484 49.12431641 54.23496094 50.41660156 54.20507812 51.74804688 C54.1986898 53.10286219 54.19283712 54.45768013 54.1875 55.8125 C54.16434252 57.1868884 54.13897455 58.56124144 54.11132812 59.93554688 C54.05246658 63.29065515 54.01617663 66.64445874 54 70 C51.02077407 70.02683987 48.04178705 70.04676037 45.0625 70.0625 C43.78729492 70.07506836 43.78729492 70.07506836 42.48632812 70.08789062 C41.67744141 70.09111328 40.86855469 70.09433594 40.03515625 70.09765625 C39.2862915 70.10289307 38.53742676 70.10812988 37.76586914 70.11352539 C36 70 36 70 35 69 C34.91493446 67.17872984 34.89181297 65.35450362 34.89453125 63.53125 C34.87970703 62.40203125 34.86488281 61.2728125 34.84960938 60.109375 C34.82519232 57.73449481 34.81947072 55.35933636 34.83398438 52.984375 C34.64795016 43.01745125 31.6693574 37.52438597 24.6875 30.625 C24.09710938 30.06296875 23.50671875 29.5009375 22.8984375 28.921875 C19.8597171 25.84563953 17.25472663 22.42740074 14.5546875 19.0546875 C11.14694938 14.97999146 7.51409683 11.13359656 3.80981445 7.32763672 C0 3.32389286 0 3.32389286 0 0 Z " fill="#000000" transform="translate(345,30)"/>
<path d="M0 0 C6.6 0 13.2 0 20 0 C20 23.1 20 46.2 20 70 C13.4 70 6.8 70 0 70 C0 46.9 0 23.8 0 0 Z " fill="#000000" transform="translate(296,30)"/>
<path d="M0 0 C0.53367188 0.19335938 1.06734375 0.38671875 1.6171875 0.5859375 C5.5914451 1.9748649 9.4832653 3.16613666 13.625 3.9375 C31.95613291 7.42098632 47.52145974 13.08166691 58.9375 28.640625 C61.17913994 32.48707534 62 34.44785825 62 39 C59.03 39.495 59.03 39.495 56 40 C55.67 39.34 55.34 38.68 55 38 C54.34 38.66 53.68 39.32 53 40 C52.5875 39.28714844 52.175 38.57429688 51.75 37.83984375 C44.10932406 25.16791914 34.28835137 18.17776896 20 14 C18.44218628 13.8260814 16.87838085 13.69605219 15.3125 13.625 C11.26652584 13.25037276 11.26652584 13.25037276 8.9375 11.0625 C8 9 8 9 8 7 C7.4225 6.731875 6.845 6.46375 6.25 6.1875 C3.94449957 4.97070811 1.97943808 3.69666121 0 2 C0 1.34 0 0.68 0 0 Z " fill="#5D16E0" transform="translate(129,56)"/>
<path d="M0 0 C4.42977671 2.1357852 7.19613671 4.39012714 9 9 C9.68426057 14.04325384 9.5739862 17.83076884 7.3125 22.4375 C4.17414476 25.91513689 2.20693511 27.726664 -2.5546875 28.31640625 C-7.18196887 28.51077715 -10.28329232 28.34555549 -14.5 26.3125 C-17.80709573 23.25343645 -19.7355386 21.22588345 -20.28125 16.6328125 C-20.45805289 11.6675979 -20.41912498 7.87500831 -17 4 C-11.88102064 -0.73505591 -6.64736836 -0.9792998 0 0 Z M-12 10 C-13.31968178 11.10528442 -13.31968178 11.10528442 -13.25 13.875 C-13.24719286 16.91047564 -13.24719286 16.91047564 -11.875 18.8125 C-9.24038773 20.48108777 -7.09896635 20.81026737 -4 21 C-1.68250878 20.59130748 -1.68250878 20.59130748 0 19 C1.46264725 15.94173757 2.29723358 14.07004088 1.375 10.75 C-0.25539982 8.67494569 -1.52924891 7.89845494 -4 7 C-7.59462316 7 -9.04423511 8.05541784 -12 10 Z " fill="#5C10EC" transform="translate(439,133)"/>
<path d="M0 0 C6 0 6 0 8.265625 1.86328125 C9.24789063 3.07564453 9.24789063 3.07564453 10.25 4.3125 C10.91515625 5.11300781 11.5803125 5.91351563 12.265625 6.73828125 C13.57439024 8.44498186 14.8069827 10.21047405 16 12 C16.33 8.04 16.66 4.08 17 0 C18.98 0 20.96 0 23 0 C23 7.92 23 15.84 23 24 C21.35 24.33 19.7 24.66 18 25 C15.94781149 23.26049702 14.43164165 21.73416866 12.75 19.6875 C12.30398438 19.17509766 11.85796875 18.66269531 11.3984375 18.13476562 C9.70582235 16.16774165 8.16459828 14.32919656 7 12 C6.67 16.29 6.34 20.58 6 25 C4.02 25 2.04 25 0 25 C0 16.75 0 8.5 0 0 Z " fill="#5C10EC" transform="translate(348,134)"/>
<path d="M0 0 C-1 3 -1 3 -3 4 C-5.18331425 4.09542522 -7.36930628 4.13190788 -9.5546875 4.140625 C-10.90626639 4.15898676 -12.25782926 4.17856006 -13.609375 4.19921875 C-15.72650579 4.2278943 -17.84262493 4.24999242 -19.95996094 4.25048828 C-32.87795743 4.27188581 -42.72595063 7.5406602 -53.625 14.5 C-73.0812308 26.52463348 -73.0812308 26.52463348 -82 26 C-81.67 24.35 -81.34 22.7 -81 21 C-80.31679687 20.86207031 -79.63359375 20.72414063 -78.9296875 20.58203125 C-70.71409843 18.51237518 -64.247404 14.96956766 -57.0625 10.5625 C-37.68530953 -1.18135046 -22.16432137 -2.22836983 0 0 Z " fill="#F2EEFA" transform="translate(262,38)"/>
<path d="M0 0 C0.66 0 1.32 0 2 0 C4.01023376 3.5985501 6.0063998 7.20471225 8 10.8125 C8.57234375 11.83666016 9.1446875 12.86082031 9.734375 13.91601562 C10.27578125 14.89892578 10.8171875 15.88183594 11.375 16.89453125 C11.87773437 17.80050049 12.38046875 18.70646973 12.8984375 19.63989258 C14 22 14 22 14 25 C5.09 25 -3.82 25 -13 25 C-11.03983704 19.11951112 -8.59278238 14.43147933 -5.5 9.125 C-4.75169922 7.80628906 -4.75169922 7.80628906 -3.98828125 6.4609375 C-3.50746094 5.63078125 -3.02664063 4.800625 -2.53125 3.9453125 C-2.09361328 3.18750488 -1.65597656 2.42969727 -1.20507812 1.64892578 C-0.80740234 1.10478027 -0.40972656 0.56063477 0 0 Z " fill="#5C10EC" transform="translate(483,75)"/>
<path d="M0 0 C7.26 0 14.52 0 22 0 C22 1.98 22 3.96 22 6 C17.05 6 12.1 6 7 6 C7 7.65 7 9.3 7 11 C7.85464844 10.98839844 8.70929688 10.97679687 9.58984375 10.96484375 C10.69457031 10.95582031 11.79929687 10.94679687 12.9375 10.9375 C14.03964844 10.92589844 15.14179688 10.91429687 16.27734375 10.90234375 C19 11 19 11 20 12 C20 13.65 20 15.3 20 17 C15.71 17 11.42 17 7 17 C7 20.63 7 24.26 7 28 C4.69 28 2.38 28 0 28 C0 18.76 0 9.52 0 0 Z " fill="#5C10EC" transform="translate(387,133)"/>
<path d="M0 0 C0.8971875 0.86625 0.8971875 0.86625 1.8125 1.75 C1.8125 3.07 1.8125 4.39 1.8125 5.75 C0.34876953 5.68039063 0.34876953 5.68039063 -1.14453125 5.609375 C-3.05298828 5.55523437 -3.05298828 5.55523437 -5 5.5 C-6.26457031 5.45359375 -7.52914062 5.4071875 -8.83203125 5.359375 C-12.21101127 5.42168592 -12.21101127 5.42168592 -14.1484375 7.5390625 C-15.70733544 10.85611601 -15.02706492 13.26257648 -14.1875 16.75 C-12.29903817 19.07866229 -12.29903817 19.07866229 -9.1484375 18.9453125 C-7.37339844 18.91050781 -7.37339844 18.91050781 -5.5625 18.875 C-4.37398437 18.85695312 -3.18546875 18.83890625 -1.9609375 18.8203125 C-0.58808594 18.78550781 -0.58808594 18.78550781 0.8125 18.75 C1.1425 20.07 1.4725 21.39 1.8125 22.75 C-3.68911147 26.5285793 -8.67881025 26.83334862 -15.1875 25.75 C-19.27392816 23.54374507 -21.71655956 21.16282133 -23.1875 16.75 C-23.7820053 12.44548063 -24.14942644 8.44554756 -21.953125 4.57421875 C-16.31439847 -2.16713005 -8.1578085 -3.19914059 0 0 Z " fill="#5C10EC" transform="translate(562.1875,134.25)"/>
<path d="M0 0 C1.98 0 3.96 0 6 0 C6 3.3 6 6.6 6 10 C9.63 10 13.26 10 17 10 C17 6.7 17 3.4 17 0 C18.98 0 20.96 0 23 0 C23 8.25 23 16.5 23 25 C21.02 25 19.04 25 17 25 C17 21.7 17 18.4 17 15 C13.37 15 9.74 15 6 15 C6 18.3 6 21.6 6 25 C4.02 25 2.04 25 0 25 C0 16.75 0 8.5 0 0 Z " fill="#5C10EC" transform="translate(573,134)"/>
<path d="M0 0 C5.94 0 11.88 0 18 0 C18.33 1.65 18.66 3.3 19 5 C14.71 5 10.42 5 6 5 C6 6.65 6 8.3 6 10 C6.71027344 9.91621094 7.42054688 9.83242187 8.15234375 9.74609375 C9.07144531 9.64425781 9.99054687 9.54242188 10.9375 9.4375 C12.31228516 9.28087891 12.31228516 9.28087891 13.71484375 9.12109375 C14.46894531 9.08113281 15.22304688 9.04117188 16 9 C17 10 17 10 17 15 C13.37 15 9.74 15 6 15 C6 16.65 6 18.3 6 20 C10.29 20 14.58 20 19 20 C19 21.65 19 23.3 19 25 C12.73 25 6.46 25 0 25 C0 16.75 0 8.5 0 0 Z " fill="#5C10EC" transform="translate(509,134)"/>
<path d="M0 0 C7.92 0 15.84 0 24 0 C24 2.31 24 4.62 24 7 C21.36 6.67 18.72 6.34 16 6 C16 13.59 16 21.18 16 29 C13.69 29 11.38 29 9 29 C9 21.41 9 13.82 9 6 C6.36 6.33 3.72 6.66 1 7 C0.67 4.69 0.34 2.38 0 0 Z " fill="#5C10EC" transform="translate(474,132)"/>
<path d="M0 0 C8.64968674 0.01488143 17.29871405 0.05650314 25.94808483 0.13209057 C29.96457038 0.16635437 33.98067584 0.1914695 37.99731445 0.19555664 C41.87505773 0.19984107 45.75194369 0.22831405 49.62941933 0.27343178 C51.10730301 0.28640246 52.58528932 0.29071592 54.06322289 0.28615379 C56.13707947 0.28124394 58.20843389 0.30734807 60.28198242 0.34057617 C61.46112717 0.34723801 62.64027191 0.35389984 63.85514832 0.36076355 C68.81156308 1.36822632 70.98629281 4.50302881 73.72583008 8.54858398 C74.23525146 9.43876221 74.74467285 10.32894043 75.26953125 11.24609375 C76.13263916 12.74052002 76.13263916 12.74052002 77.01318359 14.26513672 C77.60695801 15.3120166 78.20073242 16.35889648 78.8125 17.4375 C79.42689941 18.50758301 80.04129883 19.57766602 80.67431641 20.68017578 C81.89534067 22.80852242 83.11319424 24.9386917 84.32763672 27.07080078 C85.76910083 29.59557252 87.22438071 32.11112687 88.69140625 34.62109375 C94 43.74534553 94 43.74534553 94 46 C93.34 46 92.68 46 92 46 C92 45.01 92 44.02 92 43 C91.34 43 90.68 43 90 43 C89.46632813 41.97003906 88.93265625 40.94007812 88.3828125 39.87890625 C83.9016948 31.29187675 79.24651078 22.84965466 74.27587891 14.53540039 C73.67718994 13.53367798 73.67718994 13.53367798 73.06640625 12.51171875 C72.69273926 11.89474121 72.31907227 11.27776367 71.93408203 10.64208984 C71 9 71 9 70.08984375 6.64453125 C68.34450754 4.01088773 65.97458505 3.81973944 63 3 C60.05351662 2.71523977 60.05351662 2.71523977 56.99462891 2.77294922 C55.83387848 2.77310028 54.67312805 2.77325134 53.47720337 2.77340698 C51.62063614 2.78889084 51.62063614 2.78889084 49.7265625 2.8046875 C48.44768158 2.8075174 47.16880066 2.81034729 45.85116577 2.81326294 C42.46779901 2.8225398 39.08470674 2.84047817 35.70141602 2.8626709 C32.24237426 2.88320959 28.78330404 2.89228174 25.32421875 2.90234375 C18.54940386 2.924368 11.77471776 2.95781882 5 3 C7.37426143 7.78843355 9.88176924 12.4674872 12.5 17.125 C12.89058594 17.82753906 13.28117188 18.53007812 13.68359375 19.25390625 C15.61266161 22.68985541 17.60879495 25.86279226 20 29 C21.00770501 30.75475032 21.98538814 32.52697457 22.9375 34.3125 C24.69307444 37.59981314 26.48769843 40.8248023 28.4375 44 C28.953125 44.99 29.46875 45.98 30 47 C29.67 47.99 29.34 48.98 29 50 C27.64410819 47.70934042 26.29005721 45.41762875 24.9375 43.125 C24.50356934 42.38991211 24.06963867 41.65482422 23.62255859 40.89746094 C20.76145295 36.03585128 17.93701983 31.15471742 15.13671875 26.2578125 C14.46690858 25.08836153 13.79706802 23.91892798 13.12719727 22.74951172 C11.80666101 20.44379568 10.49176283 18.13514024 9.17944336 15.82470703 C8.25917358 14.21764893 8.25917358 14.21764893 7.3203125 12.578125 C6.50457764 11.14581543 6.50457764 11.14581543 5.67236328 9.68457031 C4.02296412 6.91356867 4.02296412 6.91356867 1.79248047 4.27636719 C0 2 0 2 0 0 Z " fill="#5D17F1" transform="translate(0,0)"/>
<path d="M0 0 C1.98 0 3.96 0 6 0 C6 8.91 6 17.82 6 27 C4.02 27 2.04 27 0 27 C0 18.09 0 9.18 0 0 Z " fill="#5C10EC" transform="translate(327,133)"/>
<path d="M0 0 C13.86 0 27.72 0 42 0 C42 0.99 42 1.98 42 3 C33.29543078 3.8757433 24.68300313 4.1538155 15.9375 4.125 C14.72900391 4.12886719 13.52050781 4.13273438 12.27539062 4.13671875 C10.54385742 4.13478516 10.54385742 4.13478516 8.77734375 4.1328125 C7.73827881 4.13168457 6.69921387 4.13055664 5.62866211 4.12939453 C3 4 3 4 0 3 C0 2.01 0 1.02 0 0 Z " fill="#5C10EC" transform="translate(615,148)"/>
<path d="M0 0 C13.86 0 27.72 0 42 0 C42 0.99 42 1.98 42 3 C33.29543078 3.8757433 24.68300313 4.1538155 15.9375 4.125 C14.72900391 4.12886719 13.52050781 4.13273438 12.27539062 4.13671875 C10.54385742 4.13478516 10.54385742 4.13478516 8.77734375 4.1328125 C7.73827881 4.13168457 6.69921387 4.13055664 5.62866211 4.12939453 C3 4 3 4 0 3 C0 2.01 0 1.02 0 0 Z " fill="#5C10EC" transform="translate(266,148)"/>
<path d="M0 0 C0.99 0.495 0.99 0.495 2 1 C2 1.66 2 2.32 2 3 C5.54518884 1.60240095 5.54518884 1.60240095 9 0 C11.96710527 7.41776317 11.09897005 14.30720968 10 22 C9.01 22 8.02 22 7 22 C6.34 19.36 5.68 16.72 5 14 C4.34 14 3.68 14 3 14 C-0.44419134 4.58997722 -0.44419134 4.58997722 0 0 Z " fill="#2B0E93" transform="translate(183,93)"/>
<path d="M0 0 C0.53367188 0.19335938 1.06734375 0.38671875 1.6171875 0.5859375 C6.72003886 2.36928694 11.69400407 3.60782473 17.03125 4.47265625 C17.6809375 4.64667969 18.330625 4.82070313 19 5 C19.33 5.66 19.66 6.32 20 7 C12.25 7.125 12.25 7.125 10 6 C10.64828848 8.03352114 10.64828848 8.03352114 12 10 C14.23535019 10.74196575 14.23535019 10.74196575 16.875 10.9375 C25.11152416 12.15130356 33.10075823 15.29597152 40 20 C40 20.66 40 21.32 40 22 C40.66 22.33 41.32 22.66 42 23 C38.42155941 23 37.3334788 22.11755522 34.375 20.1875 C28.13313728 16.34635371 22.44977567 14.10682905 15.125 13.5625 C11.25355785 13.23819071 11.25355785 13.23819071 8.9375 11.0625 C8 9 8 9 8 7 C7.4225 6.731875 6.845 6.46375 6.25 6.1875 C3.94449957 4.97070811 1.97943808 3.69666121 0 2 C0 1.34 0 0.68 0 0 Z " fill="#5B10ED" transform="translate(129,56)"/>
<path d="M0 0 C3.63 0.33 7.26 0.66 11 1 C11 1.33 11 1.66 11 2 C9.35 2.33 7.7 2.66 6 3 C6.57351298 7.01459089 7.86927161 9.58068825 10 13 C10.48339844 13.81339844 10.96679688 14.62679688 11.46484375 15.46484375 C13.57603468 19.00962851 15.67740378 22.5261868 18 25.9375 C20.40356542 29.61795955 22.46328976 33.43372895 24.53515625 37.30859375 C25.77486551 39.58635289 27.08193127 41.79075131 28.4375 44 C28.953125 44.99 29.46875 45.98 30 47 C29.67 47.99 29.34 48.98 29 50 C27.64410819 47.70934042 26.29005721 45.41762875 24.9375 43.125 C24.50356934 42.38991211 24.06963867 41.65482422 23.62255859 40.89746094 C20.76145295 36.03585128 17.93701983 31.15471742 15.13671875 26.2578125 C14.46690858 25.08836153 13.79706802 23.91892798 13.12719727 22.74951172 C11.80666101 20.44379568 10.49176283 18.13514024 9.17944336 15.82470703 C8.25917358 14.21764893 8.25917358 14.21764893 7.3203125 12.578125 C6.50457764 11.14581543 6.50457764 11.14581543 5.67236328 9.68457031 C4.02296412 6.91356867 4.02296412 6.91356867 1.79248047 4.27636719 C0 2 0 2 0 0 Z " fill="#5410EA" transform="translate(0,0)"/>
<path d="M0 0 C0.74168427 0.00444122 1.48336853 0.00888245 2.24752808 0.01345825 C3.50860886 0.01368484 3.50860886 0.01368484 4.79516602 0.01391602 C6.15773026 0.02939987 6.15773026 0.02939987 7.54782104 0.04519653 C8.47722504 0.04802643 9.40662903 0.05085632 10.36419678 0.05377197 C13.33959704 0.06498834 16.3146989 0.09009543 19.29000854 0.11550903 C21.30432712 0.12553696 23.31865041 0.13466313 25.33297729 0.14285278 C30.27710311 0.16493243 35.22100519 0.1994721 40.16500854 0.24050903 C36.53516151 2.66040706 34.90277041 2.46166873 30.59078979 2.40066528 C28.62915894 2.38422974 28.62915894 2.38422974 26.62789917 2.36746216 C25.24442444 2.34671085 23.8609606 2.32522079 22.47750854 2.30300903 C8.98029073 1.03331692 8.98029073 1.03331692 -2.95999146 5.17800903 C-3.57874146 6.18863403 -4.19749146 7.19925903 -4.83499146 8.24050903 C-5.35319458 9.08355591 -5.87139771 9.92660278 -6.40530396 10.79519653 C-7.9080878 13.26255792 -9.38086203 15.74425351 -10.83499146 18.24050903 C-11.16499146 17.58050903 -11.49499146 16.92050903 -11.83499146 16.24050903 C-10.63718307 13.82714696 -9.39395239 11.55180361 -8.02249146 9.24050903 C-7.65317505 8.59855591 -7.28385864 7.95660278 -6.90335083 7.29519653 C-2.87224604 0.37646013 -2.87224604 0.37646013 0 0 Z " fill="#611DF6" transform="translate(218.83499145507813,0.759490966796875)"/>
<path d="M0 0 C0 3.77238582 -1.18964271 5.49300705 -3.03515625 8.77734375 C-3.35149521 9.34393204 -3.66783417 9.91052032 -3.99375916 10.49427795 C-5.01075842 12.31207558 -6.03658577 14.12472186 -7.0625 15.9375 C-7.72647066 17.12273378 -8.38988765 18.30827791 -9.05273438 19.49414062 C-13.28375452 27.04576755 -17.61406044 34.53731828 -22 42 C-23.10791016 38.27490234 -23.10791016 38.27490234 -22.13671875 35.80078125 C-21.65847656 34.97964844 -21.18023437 34.15851563 -20.6875 33.3125 C-20.13707031 32.35472656 -19.58664063 31.39695312 -19.01953125 30.41015625 C-18.35308594 29.28480469 -17.68664062 28.15945312 -17 27 C-16.16999522 25.58236932 -15.34060349 24.1643796 -14.51171875 22.74609375 C-12.80479075 19.83118594 -11.08948657 16.92147358 -9.3671875 14.015625 C-7.20671862 10.36487351 -5.09530412 6.68850771 -3 3 C-4.98 3 -6.96 3 -9 3 C-9 2.67 -9 2.34 -9 2 C-6.94921875 1.77213542 -4.8984375 1.54427083 -2.84765625 1.31640625 C-0.98859771 1.18113386 -0.98859771 1.18113386 0 0 Z " fill="#430DBB" transform="translate(260,40)"/>
<path d="M0 0 C0.33 0.66 0.66 1.32 1 2 C-0.14453125 4.34765625 -0.14453125 4.34765625 -1.8125 7.0625 C-2.35519531 7.96097656 -2.89789063 8.85945312 -3.45703125 9.78515625 C-5 12 -5 12 -7 13 C-5.66666667 9.66666667 -4.33333333 6.33333333 -3 3 C-9.6 3 -16.2 3 -23 3 C-20.51942372 0.51942372 -19.63807536 0.70980995 -16.2109375 0.5859375 C-15.26992188 0.54726562 -14.32890625 0.50859375 -13.359375 0.46875 C-12.37453125 0.4378125 -11.3896875 0.406875 -10.375 0.375 C-9.38242187 0.33632812 -8.38984375 0.29765625 -7.3671875 0.2578125 C-4.91164615 0.1633686 -2.4561159 0.07780125 0 0 Z " fill="#5B0EEB" transform="translate(283,0)"/>
<path d="M0 0 C0 0.66 0 1.32 0 2 C0.66 2.33 1.32 2.66 2 3 C-1.57844059 3 -2.6665212 2.11755522 -5.625 0.1875 C-13.23126499 -4.49327845 -20.14598987 -6.29730078 -29 -7 C-29 -7.33 -29 -7.66 -29 -8 C-18.29514679 -10.6167419 -9.01028572 -5.38525781 0 0 Z " fill="#6D24F7" transform="translate(169,76)"/>
<path d="M0 0 C0.66 0 1.32 0 2 0 C2.29132812 0.60585938 2.58265625 1.21171875 2.8828125 1.8359375 C5.60940871 7.40916874 8.57246327 12.67153847 11.9609375 17.87109375 C13 20 13 20 12 23 C11.70754395 22.50072998 11.41508789 22.00145996 11.11376953 21.48706055 C9.78510193 19.2199984 8.45506602 16.95374197 7.125 14.6875 C6.66480469 13.90181641 6.20460938 13.11613281 5.73046875 12.30664062 C5.06337891 11.1706543 5.06337891 11.1706543 4.3828125 10.01171875 C3.97434082 9.31522217 3.56586914 8.61872559 3.14501953 7.90112305 C2.14351876 6.2382901 1.0767497 4.61512455 0 3 C0 2.01 0 1.02 0 0 Z " fill="#480DE0" transform="translate(17,27)"/>
<path d="M0 0 C3 1 3 1 4.02734375 2.63671875 C4.32769531 3.31347656 4.62804687 3.99023438 4.9375 4.6875 C6.2124181 7.43347745 7.45472069 9.66259301 9.1875 12.1875 C10.95362243 14.92803481 11.62318054 16.7970346 12 20 C9.86187451 17.98405311 8.25292367 16.01104183 6.73828125 13.49609375 C6.34189453 12.83802734 5.94550781 12.17996094 5.53710938 11.50195312 C5.13298828 10.82068359 4.72886719 10.13941406 4.3125 9.4375 C3.68891602 8.40979492 3.68891602 8.40979492 3.05273438 7.36132812 C0 2.2533867 0 2.2533867 0 0 Z " fill="#090B4C" transform="translate(75,129)"/>
<path d="M0 0 C4.99554339 1.66518113 6.53331295 6.56399604 9 11 C9.639375 12.134375 10.27875 13.26875 10.9375 14.4375 C12 17 12 17 11 20 C9.34951167 17.23191444 7.70542682 14.46007909 6.0625 11.6875 C5.35963867 10.50897461 5.35963867 10.50897461 4.64257812 9.30664062 C3.9706543 8.1706543 3.9706543 8.1706543 3.28515625 7.01171875 C2.87144775 6.31522217 2.45773926 5.61872559 2.03149414 4.90112305 C1 3 1 3 0 0 Z " fill="#180683" transform="translate(50,86)"/>
<path d="M0 0 C0 3.72207387 -1.17964568 5.46395589 -3 8.6875 C-3.8353125 10.17830078 -3.8353125 10.17830078 -4.6875 11.69921875 C-5.3371875 12.83810547 -5.3371875 12.83810547 -6 14 C-6.83583327 11.62392051 -7.1842383 10.45550373 -6.22265625 8.078125 C-4.61132812 5.5390625 -4.61132812 5.5390625 -3 3 C-4.98 3 -6.96 3 -9 3 C-9 2.67 -9 2.34 -9 2 C-6.94921875 1.77213542 -4.8984375 1.54427083 -2.84765625 1.31640625 C-0.98859771 1.18113386 -0.98859771 1.18113386 0 0 Z " fill="#5A21D4" transform="translate(260,40)"/>
<path d="M0 0 C0.33 0.99 0.66 1.98 1 3 C-0.109375 5.0859375 -0.109375 5.0859375 -1.75 7.375 C-2.30429688 8.16519531 -2.85859375 8.95539062 -3.4296875 9.76953125 C-3.94789063 10.50558594 -4.46609375 11.24164063 -5 12 C-6.01488468 13.65764498 -7.02402398 15.31915242 -8 17 C-8.33 16.34 -8.66 15.68 -9 15 C-7.7796615 12.56816603 -6.51503995 10.26895497 -5.125 7.9375 C-4.74730469 7.28716797 -4.36960938 6.63683594 -3.98046875 5.96679688 C-1.18268327 1.18268327 -1.18268327 1.18268327 0 0 Z " fill="#6712F5" transform="translate(216,2)"/>
<path d="M0 0 C3.00617269 3.00617269 2.59585316 5.82381598 3 10 C3.66 10 4.32 10 5 10 C4.34 11.98 3.68 13.96 3 16 C2.67 16 2.34 16 2 16 C1.34 10.72 0.68 5.44 0 0 Z " fill="#0D027B" transform="translate(187,105)"/>
<path d="M0 0 C3.63 0.33 7.26 0.66 11 1 C11 1.33 11 1.66 11 2 C10.21625 2.0825 9.4325 2.165 8.625 2.25 C5.85250896 2.72806339 5.85250896 2.72806339 4.6875 5.0625 C4.460625 5.701875 4.23375 6.34125 4 7 C0 2.25 0 2.25 0 0 Z " fill="#4D0EE3" transform="translate(0,0)"/>
<path d="M0 0 C3.4375 0.8125 3.4375 0.8125 7 2 C7.33 2.99 7.66 3.98 8 5 C7.34 5.66 6.68 6.32 6 7 C3.95880212 5.38405168 1.95927063 3.7143618 0 2 C0 1.34 0 0.68 0 0 Z " fill="#7025F6" transform="translate(129,56)"/>
<path d="M0 0 C2.29633824 3.44450737 2.54016485 5.93812283 3 10 C2.01 10 1.02 10 0 10 C0 6.7 0 3.4 0 0 Z " fill="#492CAF" transform="translate(121,64)"/>
<path d="M0 0 C0.99 0.33 1.98 0.66 3 1 C1.02 3.97 -0.96 6.94 -3 10 C-3.66 9.34 -4.32 8.68 -5 8 C-3.35 5.36 -1.7 2.72 0 0 Z " fill="#380BB8" transform="translate(180,64)"/>
<path d="M0 0 C0.33 0 0.66 0 1 0 C1.56638908 4.81430721 -0.17438373 7.20307814 -3 11 C-3.66 10.34 -4.32 9.68 -5 9 C-3.35 6.03 -1.7 3.06 0 0 Z " fill="#460CD3" transform="translate(191,44)"/>
<path d="M0 0 C0.99 0.33 1.98 0.66 3 1 C4.6875 4.5625 4.6875 4.5625 6 8 C4.125 7.375 4.125 7.375 2 6 C0.75 2.875 0.75 2.875 0 0 Z " fill="#08055B" transform="translate(70,120)"/>
<path d="M0 0 C0.6875 1.625 0.6875 1.625 1 4 C-0.4375 7.25 -0.4375 7.25 -2 10 C-2.6875 8.375 -2.6875 8.375 -3 6 C-1.5625 2.75 -1.5625 2.75 0 0 Z " fill="#390FA9" transform="translate(240,72)"/>
<path d="M0 0 C3.48331435 3.01887244 4.79157144 5.56909529 6 10 C5.34 10 4.68 10 4 10 C0 3.375 0 3.375 0 0 Z " fill="#5E0DF1" transform="translate(5,6)"/>
<path d="" fill="#391726" transform="translate(0,0)"/>
<path d="" fill="#C8B905" transform="translate(0,0)"/>
<path d="" fill="#242546" transform="translate(0,0)"/>
<path d="" fill="#212420" transform="translate(0,0)"/>
<path d="" fill="#6C2A69" transform="translate(0,0)"/>
<path d="" fill="#707174" transform="translate(0,0)"/>
<path d="" fill="#1A00A5" transform="translate(0,0)"/>
<path d="" fill="#10100B" transform="translate(0,0)"/>
<path d="" fill="#585558" transform="translate(0,0)"/>
<path d="" fill="#313131" transform="translate(0,0)"/>
<path d="" fill="#00002E" transform="translate(0,0)"/>
</svg>
