<?xml version="1.0" encoding="UTF-8"?>
<svg version="1.1" xmlns="http://www.w3.org/2000/svg" width="596" height="496">
<path d="M0 0 C196.68 0 393.36 0 596 0 C596 163.68 596 327.36 596 496 C399.32 496 202.64 496 0 496 C0 332.32 0 168.64 0 0 Z " fill="#FDFCFD" transform="translate(0,0)"/>
<path d="M0 0 C12.41312068 -0.11587934 24.82611255 -0.20470844 37.23966408 -0.25906086 C43.00388324 -0.28514816 48.76773219 -0.32053125 54.53173828 -0.37719727 C60.09495047 -0.43154666 65.65780669 -0.46142706 71.22126389 -0.47438622 C73.34316995 -0.48362073 75.46505665 -0.50165376 77.58681107 -0.52865028 C80.56041728 -0.56497882 83.53255503 -0.56994366 86.50634766 -0.56762695 C87.3824469 -0.58560333 88.25854614 -0.60357971 89.16119385 -0.62210083 C93.39740172 -0.58641875 96.13588797 -0.32883354 99.49008179 2.3918457 C101.77327442 4.76440057 103.38024548 6.79468288 104.9375 9.67578125 C105.43282227 10.57417725 105.92814453 11.47257324 106.43847656 12.39819336 C107.21143066 13.84077515 107.21143066 13.84077515 108 15.3125 C109.13890323 17.38376016 110.27958771 19.4540417 111.421875 21.5234375 C112.00775391 22.59045898 112.59363281 23.65748047 113.19726562 24.75683594 C116.13022191 30.03329738 119.19084388 35.23352814 122.25 40.4375 C128.49054292 51.09289509 134.58291637 61.81929916 140.55859375 72.625 C141.43484739 74.20836014 142.31114922 75.79169362 143.1875 77.375 C143.60725098 78.13474121 144.02700195 78.89448242 144.45947266 79.67724609 C147.19715968 84.61332944 150.03491122 89.46991399 153.0390625 94.25 C154 96 154 96 154 98 C159.83194001 95.00820099 164.92923224 91.66585277 169.95703125 87.453125 C172.02073109 85.98525437 173.52565318 85.42258507 176 85 C177.4831253 89.4493759 178.41103711 92.47916695 177 97 C175.48120117 98.83349609 175.48120117 98.83349609 173.54296875 100.5234375 C172.84236328 101.1525 172.14175781 101.7815625 171.41992188 102.4296875 C170.31487305 103.39261719 170.31487305 103.39261719 169.1875 104.375 C162.90881656 109.86675512 157.8505622 114.44427514 156.12890625 122.921875 C155.01754095 127.94780993 152.13804422 131.32414443 148.9375 135.25 C147.75990171 136.73917627 146.5828211 138.22876204 145.40625 139.71875 C144.82746094 140.44320312 144.24867188 141.16765625 143.65234375 141.9140625 C141.35338054 144.81629975 139.14483287 147.7774584 136.9375 150.75 C134.95511117 153.41347827 133.0082762 155.99072596 130.796875 158.46875 C128.08553446 162.28820364 128.25685208 165.34315093 128.4375 169.91015625 C129.3984466 175.18868931 131.63300804 178.85725878 136 182 C139.01004983 182.77191237 141.63941491 183 144.7421875 183 C145.48726562 183 146.23234375 183 147 183 C147.33 183.33 147.66 183.66 148 184 C149.52519276 183.91062197 151.04681929 183.75462854 152.5625 183.5625 C153.38878906 183.46066406 154.21507812 183.35882813 155.06640625 183.25390625 C155.70449219 183.17011719 156.34257812 183.08632812 157 183 C157.36351562 181.95585937 157.72703125 180.91171875 158.1015625 179.8359375 C159.956038 175.54056544 162.59524838 173.26794554 166.375 170.625 C166.9927832 170.18655762 167.61056641 169.74811523 168.24707031 169.29638672 C173.42786352 165.87727434 177.72115357 165.125 183.9453125 165.125 C190.27148955 164.8661283 195.60150981 162.44933979 200 158 C200.66 158 201.32 158 202 158 C203.24145074 175.90447844 197.33111387 188.43656224 186.3671875 202.0234375 C171.21023861 220.99032982 168.65315792 244.58717214 171.23803711 268.171875 C171.32835205 268.80609375 171.41866699 269.4403125 171.51171875 270.09375 C172.13539763 275.08318103 172.10752024 279.97851143 172.0625 285 C172.05798828 285.96550781 172.05347656 286.93101562 172.04882812 287.92578125 C172.03715417 290.28392089 172.02078021 292.64192602 172 295 C171.34 295 170.68 295 170 295 C169.67128906 294.3915625 169.34257812 293.783125 169.00390625 293.15625 C160.26477696 276.80138076 160.26477696 276.80138076 150.390625 261.12890625 C148.22541588 257.81419003 146.42864694 254.31140601 144.56640625 250.8203125 C142.51619802 247.12891514 140.23715458 243.61295888 137.90625 240.09375 C135.67472185 236.47208957 133.67365117 232.75127022 131.65039062 229.01025391 C128.86467775 223.92921253 125.92966501 218.9364808 123 213.9375 C122.40960938 212.92623047 121.81921875 211.91496094 121.2109375 210.87304688 C117.9811158 205.34891351 114.71493635 199.84856877 111.41601562 194.36547852 C109.1599414 190.59666763 106.95040622 186.8015148 104.75 183 C104.0379541 181.77144287 104.0379541 181.77144287 103.31152344 180.51806641 C100.22422973 175.17230335 97.21777328 169.78776472 94.25 164.375 C90.22857478 157.05055276 85.95550193 149.89535544 81.625 142.75 C76.24422846 133.86601998 71.12303893 124.88682508 66.203125 115.74047852 C62.91297706 109.63408367 59.48155313 103.63800817 55.9284668 97.68164062 C52.16910399 91.35227589 48.58181607 84.93115148 45 78.5 C40.24028218 69.96007459 35.39832819 61.48235781 30.41015625 53.07421875 C27.36684587 47.94399591 24.38714559 42.77726409 21.40795898 37.60961914 C18.70456481 32.92599231 15.97662533 28.25796611 13.2265625 23.6015625 C12.58750977 22.51625244 11.94845703 21.43094238 11.29003906 20.31274414 C10.03303142 18.17932461 8.77208809 16.0482181 7.50683594 13.91967773 C6.93481445 12.94716064 6.36279297 11.97464355 5.7734375 10.97265625 C5.26216309 10.10906494 4.75088867 9.24547363 4.22412109 8.35571289 C3.10668984 6.20531517 2.45782752 4.36749522 2 2 C1.34 2 0.68 2 0 2 C0 1.34 0 0.68 0 0 Z " fill="#36159A" transform="translate(103,31)"/>
<path d="M0 0 C0.93707291 -0.00058411 1.87414581 -0.00116821 2.83961487 -0.00177002 C5.92950798 0.00101133 9.01843021 0.03210627 12.1081543 0.06347656 C14.25334649 0.07093876 16.3985455 0.07663179 18.54374695 0.08062744 C24.18440639 0.09588537 29.82465255 0.13516898 35.46514893 0.17944336 C41.22304697 0.22039238 46.98101192 0.2386377 52.73901367 0.25878906 C64.03281485 0.30166273 75.32630955 0.36991633 86.61987305 0.45410156 C85.19791723 4.09469887 83.60043453 7.40377185 81.63549805 10.78613281 C81.03745361 11.81915527 80.43940918 12.85217773 79.82324219 13.91650391 C79.17863037 15.02203613 78.53401855 16.12756836 77.86987305 17.26660156 C77.19177781 18.43522199 76.51396656 19.60400724 75.83642578 20.77294922 C70.90061756 29.2817144 65.93164799 37.77120429 60.96704102 46.26318359 C53.76111033 58.60841556 46.69668524 71.03460482 39.61987305 83.45410156 C29.35983669 101.44829634 19.01530512 119.39306319 8.6472168 137.32519531 C0.66059055 151.13288531 0.66059055 151.13288531 -7.19262695 165.01660156 C-10.45784351 170.85914637 -13.8209753 176.6374365 -17.22900391 182.39770508 C-21.16154552 189.05513387 -25.02240033 195.75310536 -28.88012695 202.45410156 C-36.78724882 216.18114118 -44.77163005 229.85509976 -52.98168945 243.40332031 C-54.72750372 246.31822409 -56.41431381 249.2643841 -58.09135437 252.21932983 C-62.64627809 260.2428948 -67.3833162 268.14345644 -72.19262695 276.01660156 C-72.94996825 277.25933052 -73.70713018 278.50216881 -74.46411133 279.74511719 C-75.84360892 282.01020883 -77.22430726 284.27454874 -78.60595703 286.53833008 C-79.76906996 288.44985585 -80.89813339 290.38261258 -81.98828125 292.33666992 C-82.44759033 293.03542236 -82.90689941 293.7341748 -83.38012695 294.45410156 C-84.04012695 294.45410156 -84.70012695 294.45410156 -85.38012695 294.45410156 C-86.1953333 291.72571721 -87.00737539 288.99645739 -87.81762695 286.26660156 C-88.04772461 285.49767578 -88.27782227 284.72875 -88.51489258 283.93652344 C-91.92394922 272.42478145 -92.75164758 261.12474989 -89.38012695 249.45410156 C-89.2202832 248.73738281 -89.06043945 248.02066406 -88.89575195 247.28222656 C-86.33171281 236.95677165 -80.38504682 227.59159931 -75.0715332 218.46972656 C-69.26753852 208.47799197 -64.50933118 198.25091639 -60.38012695 187.45410156 C-60.09024902 186.72811768 -59.80037109 186.00213379 -59.50170898 185.25415039 C-57.33752421 179.44391009 -56.9099203 174.18797385 -57.00512695 168.01660156 C-57.01926636 166.58405029 -57.01926636 166.58405029 -57.03369141 165.12255859 C-57.41287283 146.94300005 -60.86381512 130.9777094 -72.38012695 116.45410156 C-73.03754883 115.62007813 -73.6949707 114.78605469 -74.37231445 113.92675781 C-83.84353253 102.66884475 -99.40490947 91.27429374 -114.38012695 89.45410156 C-115.31727539 89.47214844 -116.25442383 89.49019531 -117.2199707 89.50878906 C-125.23320959 89.528999 -125.23320959 89.528999 -128.8684082 86.12207031 C-130.37605189 84.1769756 -131.84284482 82.19952117 -133.2668457 80.19238281 C-136.16251937 76.44031768 -139.29274745 74.75789728 -143.38012695 72.45410156 C-143.38012695 71.79410156 -143.38012695 71.13410156 -143.38012695 70.45410156 C-139.37315197 71.03680349 -136.66104618 72.34458358 -133.19262695 74.39160156 C-127.92953271 77.11655733 -123.55445578 78.01640459 -117.75512695 78.45410156 C-101.84828626 79.72644713 -84.34998561 85.6651922 -72.08325195 96.20019531 C-69.7106995 98.66756913 -69.7106995 98.66756913 -67.38012695 98.45410156 C-66.88125977 97.48214844 -66.38239258 96.51019531 -65.8684082 95.50878906 C-61.02408359 86.16813841 -55.85434943 77.07123889 -50.46362305 68.03588867 C-45.36978374 59.48356958 -40.46931565 50.82987628 -35.59106445 42.15332031 C-31.90668409 35.60069137 -28.17080387 29.07782257 -24.42260742 22.56152344 C-21.39196392 17.27858168 -18.47263859 11.96677347 -15.7590332 6.51269531 C-11.50410758 0.16044091 -7.06746349 -0.11553775 0 0 Z " fill="#3E16A9" transform="translate(432.380126953125,30.5458984375)"/>
<path d="M0 0 C14 0 14 0 17.875 3.0625 C18.92586428 4.36764749 19.96764965 5.68015968 21 7 C22.16143263 8.07065398 23.35087182 9.1114997 24.5625 10.125 C27.19766476 12.39103662 29.77140931 14.70731959 32.3046875 17.0859375 C32.9020874 17.64651855 33.4994873 18.20709961 34.11499023 18.78466797 C35.2920057 19.89246578 36.46620794 21.00326373 37.63696289 22.11767578 C42.24476536 26.45000102 46.94175605 30.06581026 52 34 C52.33 22.78 52.66 11.56 53 0 C57.62 0 62.24 0 67 0 C67 17.49 67 34.98 67 53 C53 53 53 53 48.625 49.4375 C47.40683927 47.96641607 46.1982721 46.48732896 45 45 C43.73582634 43.82390401 42.44369988 42.67711537 41.125 41.5625 C38.04714069 38.91312699 35.013147 36.22288972 32 33.5 C24.63849181 26.65691015 24.63849181 26.65691015 16.7734375 20.4296875 C16.18820312 19.95789063 15.60296875 19.48609375 15 19 C15 18.34 15 17.68 15 17 C14.34 17 13.68 17 13 17 C13 28.55 13 40.1 13 52 C8.71 52 4.42 52 0 52 C0 34.84 0 17.68 0 0 Z " fill="#0C102F" transform="translate(460,361)"/>
<path d="M0 0 C4.87212018 -0.80061525 9.15302995 -1.06076701 14 0 C17.27186345 3.1343902 19.00025718 6.7789354 20.92822266 10.84619141 C23.00861293 15.02687547 25.49007624 18.98802568 27.875 23 C33.37234155 32.36023797 33.37234155 32.36023797 35 37 C37.69205623 34.57215757 39.3423387 31.94218978 41.14453125 28.80859375 C41.73943359 27.78056641 42.33433594 26.75253906 42.94726562 25.69335938 C43.56279297 24.61892578 44.17832031 23.54449219 44.8125 22.4375 C46.62444878 19.29511284 48.43768561 16.15411045 50.27148438 13.02441406 C51.40061798 11.04874922 52.48281312 9.0453042 53.50976562 7.01464844 C54.85776116 4.45054628 56.10977326 2.19546985 58 0 C61.32149335 -0.83876095 62.68305629 -1.02708593 65.875 -0.625 C66.56335938 -0.57988281 67.25171875 -0.53476562 67.9609375 -0.48828125 C69.64443777 -0.37137151 71.32340051 -0.19197704 73 0 C71.54159099 3.99213629 69.63136055 7.43625732 67.40234375 11.05078125 C67.0517691 11.62258118 66.70119446 12.1943811 66.33999634 12.7835083 C65.59350636 14.0009005 64.84546067 15.21733993 64.09597778 16.43289185 C62.15637082 19.57986723 60.22926574 22.73444147 58.3046875 25.890625 C57.73975334 26.81706566 57.73975334 26.81706566 57.16340637 27.76222229 C53.47920072 33.82346882 49.98181533 39.97604851 46.56640625 46.19140625 C45 49 45 49 43 52 C39.7421875 52.29296875 39.7421875 52.29296875 35.875 52.1875 C33.95300781 52.14689453 33.95300781 52.14689453 31.9921875 52.10546875 C31.00476563 52.07066406 30.01734375 52.03585937 29 52 C28.37738281 50.90171875 28.37738281 50.90171875 27.7421875 49.78125 C23.18206207 41.76764045 18.57072191 33.7840588 13.9375 25.8125 C13.0719751 24.31783203 13.0719751 24.31783203 12.18896484 22.79296875 C8.7207252 16.83675091 5.1143402 11.01732565 1.28735352 5.28393555 C0 3 0 3 0 0 Z " fill="#0A0E2D" transform="translate(95,361)"/>
<path d="M0 0 C3.82725228 0.41532609 5.89596145 1.26673356 8.44091797 4.19677734 C12.22362083 9.61964082 15.23747305 15.45233479 18.23632812 21.33398438 C20.38491289 25.47312896 22.77738995 29.44720888 25.1875 33.4375 C35.75 51.34132699 35.75 51.34132699 35.75 54.25 C31.13 54.25 26.51 54.25 21.75 54.25 C20.98816406 52.90808594 20.22632813 51.56617188 19.44140625 50.18359375 C13.33993265 39.4584401 7.16275449 28.79217972 0.75 18.25 C-2.14890168 20.94536177 -4.07530174 23.42091169 -5.875 26.9375 C-9.00554032 32.87749958 -12.39076101 38.64212543 -15.82275391 44.41088867 C-16.23702637 45.10931885 -16.65129883 45.80774902 -17.078125 46.52734375 C-17.4484082 47.14859131 -17.81869141 47.76983887 -18.20019531 48.40991211 C-19.28848559 50.31745718 -20.2678489 52.2856978 -21.25 54.25 C-26.2 54.25 -31.15 54.25 -36.25 54.25 C-35.24979223 49.24896115 -33.53458807 46.15022762 -30.8125 42 C-29.89638721 40.57162541 -28.98239 39.14189216 -28.0703125 37.7109375 C-27.60141602 36.97584961 -27.13251953 36.24076172 -26.64941406 35.48339844 C-24.8492745 32.61046112 -23.13265601 29.69405693 -21.43017578 26.76245117 C-20.19230397 24.63326301 -18.93289627 22.51788254 -17.671875 20.40234375 C-16.04835781 17.66410577 -14.53535025 14.89627374 -13.078125 12.06640625 C-9.9027167 6.13694331 -7.09843002 1.33787937 0 0 Z " fill="#0A0E2C" transform="translate(388.25,358.75)"/>
<path d="M0 0 C5.23786024 -0.68319916 9.81413849 -0.92734187 15 0 C18.91831219 3.08462874 21.2932076 6.85539433 24 11 C25.32706654 12.5445374 26.67866165 14.06861486 28.0625 15.5625 C31 18.76643991 31 18.76643991 31 21 C34.30269049 17.80384792 37.41858839 14.47314424 40.5 11.0625 C41.29148437 10.20011719 42.08296875 9.33773438 42.8984375 8.44921875 C44.61474522 6.44898652 45.81070532 4.6242604 47.125 2.375 C52.06937268 -1.70948178 58.85064695 -0.41769191 65 0 C63.30271949 4.09757662 60.43853382 7.19552446 57.5625 10.5 C57.03551514 11.12455078 56.50853027 11.74910156 55.96557617 12.39257812 C53.38932029 15.41325447 50.82388448 18.23823236 47.796875 20.8125 C41.47542193 26.3797579 39.44334783 30.28442496 38.89526367 38.68164062 C38.77512256 43.13572187 38.82964904 47.54710509 39 52 C34.38 52 29.76 52 25 52 C25.04382813 50.53949219 25.08765625 49.07898438 25.1328125 47.57421875 C25.55020749 34.62768048 25.55020749 34.62768048 19.5 23.8125 C17.68011691 22.19309044 15.84666124 20.58880586 14 19 C12.35641949 17.09582038 10.75083677 15.15809257 9.1875 13.1875 C6.80818573 10.23445037 4.41685423 7.30686501 1.9375 4.4375 C0 2 0 2 0 0 Z " fill="#0C102D" transform="translate(264,361)"/>
<path d="M0 0 C4.62 0 9.24 0 14 0 C14 17.49 14 34.98 14 53 C0 53 0 53 -4.5625 49.25 C-5.71696745 47.84036055 -6.86378158 46.42438976 -8 45 C-8.969375 44.278125 -9.93875 43.55625 -10.9375 42.8125 C-13.42028143 40.63066177 -13.73008149 39.23902214 -14 36 C-14.99 35.67 -15.98 35.34 -17 35 C-17.25 32.6875 -17.25 32.6875 -17 30 C-15.375 28.0625 -15.375 28.0625 -13 27 C-7.4786521 27.96023442 -5.58655525 30.17787062 -1 34 C-0.67 22.78 -0.34 11.56 0 0 Z " fill="#121736" transform="translate(513,361)"/>
<path d="M0 0 C0.93707291 -0.00058411 1.87414581 -0.00116821 2.83961487 -0.00177002 C5.92950798 0.00101133 9.01843021 0.03210627 12.1081543 0.06347656 C14.25334649 0.07093876 16.3985455 0.07663179 18.54374695 0.08062744 C24.18440639 0.09588537 29.82465255 0.13516898 35.46514893 0.17944336 C41.22304697 0.22039238 46.98101192 0.2386377 52.73901367 0.25878906 C64.03281485 0.30166273 75.32630955 0.36991633 86.61987305 0.45410156 C85.19791723 4.09469887 83.60043453 7.40377185 81.63549805 10.78613281 C80.73686035 12.33868774 80.73686035 12.33868774 79.82006836 13.92260742 C79.17650391 15.02612549 78.53293945 16.12964355 77.86987305 17.26660156 C77.20826172 18.40556885 76.54665039 19.54453613 75.86499023 20.71801758 C74.48159677 23.09946245 73.0961513 25.47969953 71.7097168 27.859375 C69.66835938 31.36620665 67.64340888 34.88226836 65.61987305 38.39941406 C64.37006494 40.56358739 63.12007254 42.7276543 61.86987305 44.89160156 C61.28625 45.90907471 60.70262695 46.92654785 60.10131836 47.97485352 C59.2829248 49.38577271 59.2829248 49.38577271 58.44799805 50.82519531 C57.97265625 51.64947021 57.49731445 52.47374512 57.00756836 53.32299805 C55.70660459 55.32090669 54.37305797 56.85003439 52.61987305 58.45410156 C51.93237305 56.64160156 51.93237305 56.64160156 51.61987305 54.45410156 C52.86987305 53.01660156 52.86987305 53.01660156 54.61987305 51.45410156 C56.73735731 48.23552548 58.24017555 45.04131506 59.61987305 41.45410156 C59.99112305 40.73222656 60.36237305 40.01035156 60.74487305 39.26660156 C61.7647894 37.48936023 61.7647894 37.48936023 61.61987305 35.45410156 C62.27987305 35.45410156 62.93987305 35.45410156 63.61987305 35.45410156 C66.5703514 30.84397914 68.16960025 28.08880539 67.61987305 22.45410156 C68.60987305 21.95910156 68.60987305 21.95910156 69.61987305 21.45410156 C69.61987305 22.11410156 69.61987305 22.77410156 69.61987305 23.45410156 C70.27987305 23.45410156 70.93987305 23.45410156 71.61987305 23.45410156 C71.61987305 21.80410156 71.61987305 20.15410156 71.61987305 18.45410156 C72.27987305 18.45410156 72.93987305 18.45410156 73.61987305 18.45410156 C73.94987305 16.14410156 74.27987305 13.83410156 74.61987305 11.45410156 C75.60987305 11.45410156 76.59987305 11.45410156 77.61987305 11.45410156 C78.93987305 9.14410156 80.25987305 6.83410156 81.61987305 4.45410156 C76.56136862 3.62308143 71.65832752 3.31024986 66.52905273 3.32470703 C65.75256378 3.32295471 64.97607483 3.32120239 64.17605591 3.31939697 C61.63126333 3.31502583 59.08654123 3.3178985 56.54174805 3.32128906 C54.76531969 3.32061494 52.98889142 3.319644 51.21246338 3.31838989 C47.50060136 3.31691958 43.7887635 3.31904705 40.0769043 3.32373047 C35.31648221 3.32944404 30.55611631 3.32613427 25.79569626 3.320158 C22.13262507 3.31654859 18.46956726 3.31769245 14.80649567 3.3202858 C13.05059045 3.32095315 11.29468402 3.32013333 9.53878021 3.31780624 C7.09019231 3.3152717 4.64169628 3.31913093 2.19311523 3.32470703 C1.46683929 3.3226828 0.74056335 3.32065857 -0.00772095 3.318573 C-3.07759555 3.33154854 -5.44317156 3.47511643 -8.38012695 4.45410156 C-8.71012695 5.11410156 -9.04012695 5.77410156 -9.38012695 6.45410156 C-10.37012695 6.45410156 -11.36012695 6.45410156 -12.38012695 6.45410156 C-12.38012695 7.11410156 -12.38012695 7.77410156 -12.38012695 8.45410156 C-11.06012695 8.78410156 -9.74012695 9.11410156 -8.38012695 9.45410156 C-10.36012695 10.11410156 -12.34012695 10.77410156 -14.38012695 11.45410156 C-14.38012695 12.77410156 -14.38012695 14.09410156 -14.38012695 15.45410156 C-15.71346029 16.7874349 -17.04679362 18.12076823 -18.38012695 19.45410156 C-18.48325195 20.38222656 -18.58637695 21.31035156 -18.69262695 22.26660156 C-19.58113896 26.38606631 -21.37815662 27.51884168 -24.38012695 30.45410156 C-28.68925815 36.41661643 -30.87603492 41.14476701 -31.38012695 48.45410156 C-32.44262695 50.95410156 -32.44262695 50.95410156 -33.38012695 52.45410156 C-33.71012695 51.46410156 -34.04012695 50.47410156 -34.38012695 49.45410156 C-37.61509979 51.10969498 -37.61509979 51.10969498 -37.94262695 54.01660156 C-38.08700195 54.82097656 -38.23137695 55.62535156 -38.38012695 56.45410156 C-39.37012695 56.94910156 -39.37012695 56.94910156 -40.38012695 57.45410156 C-39.72012695 58.11410156 -39.06012695 58.77410156 -38.38012695 59.45410156 C-40.23472134 62.36846418 -41.95567682 65.04251356 -44.44262695 67.45410156 C-46.78514222 69.87218184 -47.99455785 72.40584953 -49.38012695 75.45410156 C-50.04012695 75.45410156 -50.70012695 75.45410156 -51.38012695 75.45410156 C-51.66887695 76.07285156 -51.95762695 76.69160156 -52.25512695 77.32910156 C-53.38012695 79.45410156 -53.38012695 79.45410156 -55.38012695 81.45410156 C-56.38012695 78.45410156 -56.38012695 78.45410156 -55.58251953 76.51904297 C-55.15092529 75.78862793 -54.71933105 75.05821289 -54.2746582 74.30566406 C-53.55052734 73.06139648 -53.55052734 73.06139648 -52.81176758 71.79199219 C-52.27745117 70.89673828 -51.74313477 70.00148438 -51.19262695 69.07910156 C-50.07387012 67.16519525 -48.95538801 65.25112834 -47.8371582 63.33691406 C-47.26046387 62.35754883 -46.68376953 61.37818359 -46.08959961 60.36914062 C-43.48038826 55.91984279 -40.93124021 51.4368749 -38.38012695 46.95410156 C-37.38830938 45.21691114 -36.39611981 43.47993305 -35.40356445 41.74316406 C-34.90953125 40.87852539 -34.41549805 40.01388672 -33.90649414 39.12304688 C-32.32925127 36.36514235 -30.74946786 33.60870522 -29.16918945 30.85253906 C-28.37943726 29.47376587 -28.37943726 29.47376587 -27.57373047 28.06713867 C-26.54144132 26.26525186 -25.50810347 24.46396536 -24.47363281 22.66333008 C-21.42776622 17.34588369 -18.48931922 12.00029988 -15.7590332 6.51269531 C-11.50410758 0.16044091 -7.06746349 -0.11553775 0 0 Z " fill="#7F44EB" transform="translate(432.380126953125,30.5458984375)"/>
<path d="M0 0 C4.00697499 0.58270193 6.71908077 1.89048201 10.1875 3.9375 C15.45059424 6.66245577 19.82567117 7.56230302 25.625 8 C43.04870699 9.39367563 63.14689191 16.73426513 76 29 C78 31.875 78 31.875 79 34 C77.02 33.505 77.02 33.505 75 33 C75 32.34 75 31.68 75 31 C73.68 30.34 72.36 29.68 71 29 C71 28.34 71 27.68 71 27 C66.98195309 26.15901344 63.98196457 25.94595055 60 27 C60 27.99 60 28.98 60 30 C61.32 29.67 62.64 29.34 64 29 C65.02917971 31.57294928 66.03426612 34.10769353 66.875 36.75 C67.77795791 39.18940766 67.77795791 39.18940766 70.125 39.8125 C70.74375 39.874375 71.3625 39.93625 72 40 C72 40.66 72 41.32 72 42 C72.66 42.33 73.32 42.66 74 43 C74 43.66 74 44.32 74 45 C74.66 45.66 75.32 46.32 76 47 C75.67 47.99 75.34 48.98 75 50 C72.66111936 47.73420938 70.41071881 45.50080572 68.34375 42.98046875 C59.12245725 31.82504892 43.69594795 20.78624782 29 19 C28.06285156 19.01804687 27.12570312 19.03609375 26.16015625 19.0546875 C18.14691736 19.07489743 18.14691736 19.07489743 14.51171875 15.66796875 C13.00407506 13.72287404 11.53728214 11.74541961 10.11328125 9.73828125 C7.21760759 5.98621611 4.0873795 4.30379572 0 2 C0 1.34 0 0.68 0 0 Z " fill="#6F27EA" transform="translate(289,101)"/>
<path d="M0 0 C4.29 0 8.58 0 13 0 C13 17.16 13 34.32 13 52 C8.71 52 4.42 52 0 52 C0 34.84 0 17.68 0 0 Z " fill="#090C28" transform="translate(208,361)"/>
<path d="M0 0 C12.41312068 -0.11587934 24.82611255 -0.20470844 37.23966408 -0.25906086 C43.00388324 -0.28514816 48.76773219 -0.32053125 54.53173828 -0.37719727 C60.09495047 -0.43154666 65.65780669 -0.46142706 71.22126389 -0.47438622 C73.34316995 -0.48362073 75.46505665 -0.50165376 77.58681107 -0.52865028 C80.56041728 -0.56497882 83.53255503 -0.56994366 86.50634766 -0.56762695 C87.3824469 -0.58560333 88.25854614 -0.60357971 89.16119385 -0.62210083 C93.3936022 -0.58645075 96.13479101 -0.32997525 99.48710632 2.3868866 C101.81603542 4.80869851 103.44728959 6.91198559 105.04296875 9.8515625 C105.55448486 10.77686768 106.06600098 11.70217285 106.59301758 12.65551758 C107.11919678 13.63544678 107.64537598 14.61537598 108.1875 15.625 C109.31917545 17.68421904 110.45200839 19.74280235 111.5859375 21.80078125 C112.15151367 22.83412598 112.71708984 23.8674707 113.29980469 24.93212891 C116.34487926 30.42673073 119.54505307 35.83160446 122.7487793 41.23486328 C123.17843994 41.96817871 123.60810059 42.70149414 124.05078125 43.45703125 C124.42887939 44.09616455 124.80697754 44.73529785 125.1965332 45.39379883 C126 47 126 47 126 49 C125.34 49 124.68 49 124 49 C123.67 48.34 123.34 47.68 123 47 C121.515 46.01 121.515 46.01 120 45 C117.8125 43.375 117.8125 43.375 116 41 C115.65661236 38.24233309 115.81360766 35.79588512 116 33 C115.34 33 114.68 33 114 33 C113.67 32.01 113.34 31.02 113 30 C112.01 31.485 112.01 31.485 111 33 C110.01 33 109.02 33 108 33 C108 31.35 108 29.7 108 28 C109.32 28 110.64 28 112 28 C111.73323796 26.01508358 111.73323796 26.01508358 111 24 C109.515 23.505 109.515 23.505 108 23 C107.0078125 21.1875 107.0078125 21.1875 106.125 19 C105.17932787 16.83191976 105.17932787 16.83191976 104 15 C101.3852733 13.87184635 101.3852733 13.87184635 99 14 C99.33 12.35 99.66 10.7 100 9 C98.68 9 97.36 9 96 9 C96 8.01 96 7.02 96 6 C95.34 6 94.68 6 94 6 C93.505 4.515 93.505 4.515 93 3 C82.49072836 2.97685078 71.98146276 2.95907171 61.47217083 2.94818783 C56.59252206 2.94296467 51.7128907 2.93587725 46.83325195 2.92456055 C42.12595765 2.91371161 37.41868012 2.90771889 32.71137428 2.90512276 C30.91360014 2.90327214 29.11582694 2.89965846 27.31805992 2.89426994 C24.80406063 2.88703293 22.29013105 2.88601019 19.77612305 2.88647461 C19.02949905 2.88287933 18.28287506 2.87928406 17.5136261 2.87557983 C14.3984415 2.8818253 11.97941849 3.0068605 9 4 C8.01 4.33 7.02 4.66 6 5 C7.98 8.63 9.96 12.26 12 16 C12.99 16 13.98 16 15 16 C15.33 17.32 15.66 18.64 16 20 C16.99 20 17.98 20 19 20 C18.34 20.66 17.68 21.32 17 22 C17 22.99 17 23.98 17 25 C17.99 25.66 18.98 26.32 20 27 C21.625 28.125 21.625 28.125 23 30 C23.33984375 31.9375 23.33984375 31.9375 23.5625 34.125 C23.706875 35.40375 23.85125 36.6825 24 38 C24.66 38.33 25.32 38.66 26 39 C26.6837045 40.32467746 27.34964186 41.65863633 28 43 C28.66 43.66 29.32 44.32 30 45 C30 45.66 30 46.32 30 47 C30.639375 47.165 31.27875 47.33 31.9375 47.5 C34 49 34 49 34.48828125 50.9140625 C34.7275978 52.93575155 34.86893028 54.96841939 35 57 C37.31 57.66 39.62 58.32 42 59 C41.505 60.175625 41.505 60.175625 41 61.375 C39.88133489 63.84332497 39.88133489 63.84332497 40 66 C36.14767385 64.71589128 35.86737111 63.47530759 33.9609375 59.9609375 C33.09734619 58.38940918 33.09734619 58.38940918 32.21630859 56.78613281 C31.60867676 55.66045898 31.00104492 54.53478516 30.375 53.375 C29.10588832 51.0641578 27.83506161 48.75425664 26.5625 46.4453125 C25.64017578 44.76743652 25.64017578 44.76743652 24.69921875 43.05566406 C22.66852631 39.40391887 20.55510946 35.81394693 18.375 32.25 C14.64566335 26.10963663 11.02070463 19.91432737 7.4375 13.6875 C6.63094971 12.2967627 6.63094971 12.2967627 5.80810547 10.87792969 C5.3132666 10.01458008 4.81842773 9.15123047 4.30859375 8.26171875 C3.64041626 7.10095825 3.64041626 7.10095825 2.95874023 5.91674805 C2 4 2 4 2 2 C1.34 2 0.68 2 0 2 C0 1.34 0 0.68 0 0 Z " fill="#814AE9" transform="translate(103,31)"/>
<path d="M0 0 C3.70390021 2.02666238 5.65363011 3.48044516 8 7 C8.76579737 13.67337705 8.76579737 13.67337705 6.94921875 16.8203125 C3.82844193 20.63152668 2.1307212 21.88692788 -2.75 22.375 C-6.10058068 22.35058775 -7.84894532 21.75601354 -10.4375 19.625 C-13.88331435 16.0951414 -14.39555836 14.0716348 -14.359375 9.10546875 C-13.72418186 5.38406547 -11.66020984 3.59687151 -9 1 C-5.89046621 -0.5547669 -3.43733239 -0.28644437 0 0 Z " fill="#6E29E6" transform="translate(286,440)"/>
<path d="M0 0 C0.66 0 1.32 0 2 0 C1.731875 0.78375 1.46375 1.5675 1.1875 2.375 C0.55184088 4.31543309 -0.06570641 6.26513012 -0.55688477 8.24707031 C-2.24102794 14.76591615 -4.87482986 19.21088718 -9.125 24.375 C-10.293492 25.84593866 -11.46145795 27.31729534 -12.62890625 28.7890625 C-13.20141113 29.50094727 -13.77391602 30.21283203 -14.36376953 30.94628906 C-16.6638897 33.83327964 -18.86299796 36.78561289 -21.0625 39.75 C-23.04488883 42.41347827 -24.9917238 44.99072596 -27.203125 47.46875 C-29.91446554 51.28820364 -29.74314792 54.34315093 -29.5625 58.91015625 C-28.6015534 64.18868931 -26.36699196 67.85725878 -22 71 C-18.98995017 71.77191237 -16.36058509 72 -13.2578125 72 C-12.51273438 72 -11.76765625 72 -11 72 C-10.505 72.495 -10.505 72.495 -10 73 C-8.47480724 72.91062197 -6.95318071 72.75462854 -5.4375 72.5625 C-4.61121094 72.46066406 -3.78492188 72.35882813 -2.93359375 72.25390625 C-2.29550781 72.17011719 -1.65742188 72.08632812 -1 72 C-0.63003906 70.94683594 -0.26007813 69.89367187 0.12109375 68.80859375 C2.87004985 62.43185104 9.02814667 59.03997059 15 56 C18.49921042 55.35166914 21.50645221 55.3612249 25 56 C25 56.33 25 56.66 25 57 C24.32453125 57.12117188 23.6490625 57.24234375 22.953125 57.3671875 C21.61507812 57.61855469 21.61507812 57.61855469 20.25 57.875 C18.92742187 58.11863281 18.92742187 58.11863281 17.578125 58.3671875 C15.13052256 58.96796264 13.19400143 59.77997117 11 61 C11 61.99 11 62.98 11 64 C10.2575 64.4125 9.515 64.825 8.75 65.25 C5.95571361 67.02818225 5.39429156 67.75919195 3.9375 70.5625 C2 74 2 74 0.25 75.4375 C-5.41798201 76.8544955 -11.32742415 76.01295997 -17 75 C-17.69609375 74.90074219 -18.3921875 74.80148438 -19.109375 74.69921875 C-21.25 74.3125 -21.25 74.3125 -25 73 C-27 69.875 -27 69.875 -28 67 C-28.99 67 -29.98 67 -31 67 C-33.46254726 60.38190423 -33.18935472 53.99560484 -33 47 C-31 46 -29 45 -27 44 C-26.32060826 42.00428677 -25.65438441 40.00405227 -25 38 C-24.34 37.34 -23.68 36.68 -23 36 C-22.01 36 -21.02 36 -20 36 C-19.71125 35.4225 -19.4225 34.845 -19.125 34.25 C-18.08333333 32.16666667 -17.04166667 30.08333333 -16 28 C-15.34 28 -14.68 28 -14 28 C-14.474375 27.5875 -14.94875 27.175 -15.4375 26.75 C-17.16266518 24.817815 -17.56584875 23.51807725 -18 21 C-16.906875 20.938125 -15.81375 20.87625 -14.6875 20.8125 C-10.86420202 20.4061227 -10.86420202 20.4061227 -9.25 17.5 C-8.8375 16.675 -8.425 15.85 -8 15 C-7.01 14.67 -6.02 14.34 -5 14 C-4.04289573 11.80491727 -4.04289573 11.80491727 -3.4375 9.1875 C-2.57546564 5.89034032 -1.6293856 3.00002757 0 0 Z " fill="#332E68" transform="translate(261,142)"/>
<path d="M0 0 C0.495 1.485 0.495 1.485 1 3 C-0.40625 5.34765625 -0.40625 5.34765625 -2.5 8.0625 C-3.23992187 9.04605469 -3.97984375 10.02960938 -4.7421875 11.04296875 C-5.48726563 12.01878906 -6.23234375 12.99460938 -7 14 C-22.19865083 34.08618378 -25.47054175 56.45852365 -22.76196289 81.171875 C-22.62649048 82.12320313 -22.62649048 82.12320313 -22.48828125 83.09375 C-21.86460237 88.08318103 -21.89247976 92.97851143 -21.9375 98 C-21.94201172 98.96550781 -21.94652344 99.93101562 -21.95117188 100.92578125 C-21.96284583 103.28392089 -21.97921979 105.64192602 -22 108 C-22.66 108 -23.32 108 -24 108 C-30.51936219 96.47835991 -30.51936219 96.47835991 -32 91 C-31.34 91 -30.68 91 -30 91 C-29.34 90.01 -28.68 89.02 -28 88 C-27.01 88 -26.02 88 -25 88 C-25.15597656 86.99324219 -25.31195313 85.98648438 -25.47265625 84.94921875 C-27.78751079 68.77833413 -27.19976614 52.84042227 -23 37 C-22.505 36.505 -22.505 36.505 -22 36 C-21.87625 34.865625 -21.7525 33.73125 -21.625 32.5625 C-21.41875 31.386875 -21.2125 30.21125 -21 29 C-20.01 28.34 -19.02 27.68 -18 27 C-18 25.68 -18 24.36 -18 23 C-17.01 23 -16.02 23 -15 23 C-14.731875 22.071875 -14.46375 21.14375 -14.1875 20.1875 C-13.05426774 17.14566604 -12.35320739 16.05905646 -10 14 C-9.34 13.01 -8.68 12.02 -8 11 C-7.46375 10.319375 -6.9275 9.63875 -6.375 8.9375 C-4.80708433 7.12413466 -4.80708433 7.12413466 -5 5 C-4.01 4.67 -3.02 4.34 -2 4 C-0.79117904 1.99983534 -0.79117904 1.99983534 0 0 Z " fill="#272A42" transform="translate(297,218)"/>
<path d="M0 0 C0.99 0.495 0.99 0.495 2 1 C-9.0475675 20.58603556 -20.13468749 40.14411562 -31.4987793 59.54858398 C-34.72972384 65.07539762 -37.93172818 70.61715067 -41.09375 76.18359375 C-41.60932465 77.09109123 -41.60932465 77.09109123 -42.13531494 78.016922 C-42.82903594 79.23819092 -43.52274121 80.45946878 -44.21643066 81.68075562 C-50.23767145 92.27908522 -56.38521956 102.75981104 -63 113 C-63.33 111.68 -63.66 110.36 -64 109 C-63.34 109 -62.68 109 -62 109 C-61.87625 108.2575 -61.7525 107.515 -61.625 106.75 C-61.0361298 104.15897111 -60.26817487 102.31255417 -59 100 C-58.62875 99.2575 -58.2575 98.515 -57.875 97.75 C-57.441875 96.88375 -57.441875 96.88375 -57 96 C-56.34 96 -55.68 96 -55 96 C-55 95.01 -55 94.02 -55 93 C-54.34 93 -53.68 93 -53 93 C-52.67 91.68 -52.34 90.36 -52 89 C-51.34 89 -50.68 89 -50 89 C-49.855625 88.4225 -49.71125 87.845 -49.5625 87.25 C-49.376875 86.5075 -49.19125 85.765 -49 85 C-48.835 84.319375 -48.67 83.63875 -48.5 82.9375 C-48.07018312 81.2719596 -47.54394553 79.63183658 -47 78 C-46.505 78.495 -46.505 78.495 -46 79 C-45.67 78.34 -45.34 77.68 -45 77 C-44.34 77 -43.68 77 -43 77 C-42.87625 76.278125 -42.7525 75.55625 -42.625 74.8125 C-42.0095069 72.04278106 -41.11555626 69.6029646 -40 67 C-39.34 67 -38.68 67 -38 67 C-37.566875 65.9171875 -37.566875 65.9171875 -37.125 64.8125 C-36.75375 63.884375 -36.3825 62.95625 -36 62 C-35.67 61.0925 -35.34 60.185 -35 59.25 C-34 57 -34 57 -32 56 C-31.26924352 53.6859378 -30.59861742 51.35171131 -30 49 C-29.34 49 -28.68 49 -28 49 C-26.21590198 45.93753253 -25.77119979 43.77920727 -25.875 40.25 C-25.89304687 39.45078125 -25.91109375 38.6515625 -25.9296875 37.828125 C-25.95289063 37.22484375 -25.97609375 36.6215625 -26 36 C-25.01 36.33 -24.02 36.66 -23 37 C-18.02164556 30.72145677 -13.32506637 24.28697942 -10.9375 16.5625 C-9.77539218 13.38607196 -8.89146608 13.44573304 -6 12 C-5.27954236 10.0187415 -4.61998741 8.01495907 -4 6 C-2.71927629 3.9659094 -1.39712274 1.95597184 0 0 Z " fill="#261B6E" transform="translate(452,144)"/>
<path d="M0 0 C0.66 0 1.32 0 2 0 C2 0.66 2 1.32 2 2 C2.66 2.33 3.32 2.66 4 3 C3.731875 3.515625 3.46375 4.03125 3.1875 4.5625 C2.2601307 6.46604751 1.42389949 8.41406488 0.625 10.375 C-0.95088545 13.89043677 -2.83578849 16.82582311 -5 20 C-5.33 20.99 -5.66 21.98 -6 23 C-5.34 23 -4.68 23 -4 23 C-4 23.66 -4 24.32 -4 25 C-4.66 25 -5.32 25 -6 25 C-6.226875 25.556875 -6.45375 26.11375 -6.6875 26.6875 C-8 29 -8 29 -10.625 31.4375 C-13.25629525 33.76716333 -13.25629525 33.76716333 -13.3125 36.8125 C-13.209375 37.534375 -13.10625 38.25625 -13 39 C-13.66 39 -14.32 39 -15 39 C-15 39.66 -15 40.32 -15 41 C-15.639375 41.598125 -16.27875 42.19625 -16.9375 42.8125 C-19.25174456 45.26700181 -19.63391473 46.70523261 -20 50 C-20.66 50 -21.32 50 -22 50 C-22.12375 50.99 -22.12375 50.99 -22.25 52 C-22.91866409 54.67465637 -23.68960729 56.37610017 -25 58.75 C-26.96161477 62.48910685 -27.56050016 65.73251681 -27.82421875 69.921875 C-28 72 -28 72 -28.5078125 73.984375 C-30.58577257 82.49411624 -28.72115155 92.83654534 -26 101 C-25.34 101.66 -24.68 102.32 -24 103 C-24.495 103.99 -24.495 103.99 -25 105 C-24.01 105 -23.02 105 -22 105 C-22.66 106.65 -23.32 108.3 -24 110 C-24.66 110 -25.32 110 -26 110 C-26.81520635 107.27161565 -27.62724843 104.54235583 -28.4375 101.8125 C-28.66759766 101.04357422 -28.89769531 100.27464844 -29.13476562 99.48242188 C-32.54382227 87.97067989 -33.37152063 76.67064833 -30 65 C-29.84015625 64.28328125 -29.6803125 63.5665625 -29.515625 62.828125 C-26.95158586 52.50267008 -21.00491986 43.13749775 -15.69140625 34.015625 C-9.39511772 23.17292201 -3.97301829 11.91905486 0 0 Z " fill="#21224A" transform="translate(373,215)"/>
<path d="M0 0 C1.65 0 3.3 0 5 0 C5 7.26 5 14.52 5 22 C-0.75358089 20.84928382 -1.37313178 19.9035453 -4.8125 15.4375 C-5.60269531 14.42558594 -6.39289063 13.41367187 -7.20703125 12.37109375 C-7.79871094 11.58863281 -8.39039063 10.80617188 -9 10 C-9.33 13.63 -9.66 17.26 -10 21 C-11.32 21 -12.64 21 -14 21 C-14 14.4 -14 7.8 -14 1 C-12.35 1 -10.7 1 -9 1 C-6.76171875 3.40625 -6.76171875 3.40625 -4.6875 6.5 C-3.99011719 7.5209375 -3.29273438 8.541875 -2.57421875 9.59375 C-2.05472656 10.3878125 -1.53523437 11.181875 -1 12 C-0.67 8.04 -0.34 4.08 0 0 Z " fill="#7F46E1" transform="translate(218,440)"/>
<path d="M0 0 C1.65 0 3.3 0 5 0 C5 2.97 5 5.94 5 9 C8.3 9 11.6 9 15 9 C15 6.03 15 3.06 15 0 C16.32 0 17.64 0 19 0 C19 7.26 19 14.52 19 22 C17.35 22 15.7 22 14 22 C14 19.03 14 16.06 14 13 C11.03 13 8.06 13 5 13 C5 15.97 5 18.94 5 22 C3.35 22 1.7 22 0 22 C0 14.74 0 7.48 0 0 Z " fill="#723DDA" transform="translate(426,440)"/>
<path d="M0 0 C0.66 0.33 1.32 0.66 2 1 C1.05191434 3.84425697 0.26175699 5.7387872 -1.87890625 7.875 C-7.67505747 13.68182553 -10.44392894 19.93696966 -11 28 C-12.0625 30.5 -12.0625 30.5 -13 32 C-13.33 31.01 -13.66 30.02 -14 29 C-17.23497283 30.65559342 -17.23497283 30.65559342 -17.5625 33.5625 C-17.706875 34.366875 -17.85125 35.17125 -18 36 C-18.99 36.495 -18.99 36.495 -20 37 C-19.34 37.66 -18.68 38.32 -18 39 C-19.85459439 41.91436261 -21.57554987 44.588412 -24.0625 47 C-26.40501527 49.41808028 -27.61443089 51.95174796 -29 55 C-29.66 55 -30.32 55 -31 55 C-31.28875 55.61875 -31.5775 56.2375 -31.875 56.875 C-33 59 -33 59 -35 61 C-36 58 -36 58 -35.20239258 56.06494141 C-34.55500122 54.96931885 -34.55500122 54.96931885 -33.89453125 53.8515625 C-33.41129395 53.02116455 -32.92805664 52.1907666 -32.43017578 51.33520508 C-31.89634277 50.4408374 -31.36250977 49.54646973 -30.8125 48.625 C-29.70149629 46.72545141 -28.59082898 44.82570604 -27.48046875 42.92578125 C-26.90474121 41.94818848 -26.32901367 40.9705957 -25.73583984 39.96337891 C-22.98766889 35.27177567 -20.30951769 30.54071226 -17.625 25.8125 C-16.22890097 23.35587759 -14.82936828 20.90174277 -13.41503906 18.45556641 C-12.40337777 16.69999545 -11.40700467 14.93557888 -10.42089844 13.16552734 C-9.63634277 11.79001709 -9.63634277 11.79001709 -8.8359375 10.38671875 C-8.36462402 9.54713623 -7.89331055 8.70755371 -7.40771484 7.8425293 C-6.94316895 7.23449463 -6.47862305 6.62645996 -6 6 C-5.01 6 -4.02 6 -3 6 C-2.690625 5.195625 -2.38125 4.39125 -2.0625 3.5625 C-1 1 -1 1 0 0 Z " fill="#5A1EDD" transform="translate(412,51)"/>
<path d="M0 0 C4.00697499 0.58270193 6.71908077 1.89048201 10.1875 3.9375 C16.43297054 7.20856519 22.19759116 7.94039773 29.11987305 8.41772461 C31.08458942 8.55674654 33.04366063 8.77158416 35 9 C35.495 9.99 35.495 9.99 36 11 C33.36 11 30.72 11 28 11 C29.83110677 15.11999024 31.30029606 17.45454254 35 20 C19.15587872 19.77780628 19.15587872 19.77780628 14.08203125 15.59375 C12.62594592 13.67635622 11.22994809 11.71161949 9.90234375 9.703125 C7.18963934 5.84852244 4.05567177 4.28592409 0 2 C0 1.34 0 0.68 0 0 Z " fill="#702EE7" transform="translate(289,101)"/>
<path d="M0 0 C4.95 0 9.9 0 15 0 C15.33 1.65 15.66 3.3 16 5 C12.04 5 8.08 5 4 5 C4 6.32 4 7.64 4 9 C7.3 9 10.6 9 14 9 C14 10.32 14 11.64 14 13 C10.7 13 7.4 13 4 13 C4 14.65 4 16.3 4 18 C7.63 18 11.26 18 15 18 C15 18.99 15 19.98 15 21 C10.05 21 5.1 21 0 21 C0 14.07 0 7.14 0 0 Z " fill="#6F35D9" transform="translate(359,440)"/>
<path d="M0 0 C3.75966883 1.25322294 4.13149973 2.4394228 6.0625 5.8125 C6.82240234 7.12154297 6.82240234 7.12154297 7.59765625 8.45703125 C8.78797902 10.61552742 9.92062656 12.78444398 11 15 C11.99 15 12.98 15 14 15 C14.33 16.32 14.66 17.64 15 19 C15.99 19 16.98 19 18 19 C17.34 19.66 16.68 20.32 16 21 C16 21.99 16 22.98 16 24 C16.99 24.66 17.98 25.32 19 26 C20.625 27.125 20.625 27.125 22 29 C22.33984375 30.9375 22.33984375 30.9375 22.5625 33.125 C22.706875 34.40375 22.85125 35.6825 23 37 C23.66 37.33 24.32 37.66 25 38 C25.6837045 39.32467746 26.34964186 40.65863633 27 42 C27.66 42.66 28.32 43.32 29 44 C29 44.66 29 45.32 29 46 C29.639375 46.165 30.27875 46.33 30.9375 46.5 C33 48 33 48 33.48828125 49.9140625 C33.7275978 51.93575155 33.86893028 53.96841939 34 56 C36.31 56.66 38.62 57.32 41 58 C40.505 59.175625 40.505 59.175625 40 60.375 C38.88133489 62.84332497 38.88133489 62.84332497 39 65 C35.14767385 63.71589128 34.86737111 62.47530759 32.9609375 58.9609375 C32.38520996 57.91325195 31.80948242 56.86556641 31.21630859 55.78613281 C30.60867676 54.66045898 30.00104492 53.53478516 29.375 52.375 C28.10588832 50.0641578 26.83506161 47.75425664 25.5625 45.4453125 C24.64017578 43.76743652 24.64017578 43.76743652 23.69921875 42.05566406 C21.66853101 38.40392731 19.55525187 34.81385348 17.375 31.25 C13.65820022 25.13481243 10.05983137 18.95790894 6.5 12.75 C5.70601807 11.37183105 5.70601807 11.37183105 4.89599609 9.96582031 C4.40437988 9.10569336 3.91276367 8.24556641 3.40625 7.359375 C2.96603516 6.59077148 2.52582031 5.82216797 2.07226562 5.03027344 C1 3 1 3 0 0 Z " fill="#6C2BDC" transform="translate(104,32)"/>
<path d="M0 0 C2.9375 1.5 2.9375 1.5 5 3 C4.67 3.99 4.34 4.98 4 6 C2.82630859 5.98259766 2.82630859 5.98259766 1.62890625 5.96484375 C0.61699219 5.95582031 -0.39492188 5.94679688 -1.4375 5.9375 C-2.95150391 5.92009766 -2.95150391 5.92009766 -4.49609375 5.90234375 C-6.94021067 5.71387324 -6.94021067 5.71387324 -8 7 C-8.16053815 8.87321948 -8.16053815 8.87321948 -8.125 11 C-8.12757813 11.721875 -8.13015625 12.44375 -8.1328125 13.1875 C-8.19695276 15.02089415 -8.19695276 15.02089415 -7 16 C-4.44436629 16.07211665 -1.90339547 15.99633716 0.65234375 15.9375 C3 16 3 16 5 17 C4 20 4 20 1 22 C-7.71698113 22.55345912 -7.71698113 22.55345912 -11 20 C-14.07161888 16.37987775 -14.70552143 12.85544345 -14.54296875 8.2265625 C-13.69278978 4.74021707 -11.84936661 3.10067572 -9.00390625 1.03125 C-5.81192151 -0.61140881 -3.50001745 -0.58333624 0 0 Z " fill="#6A2DDA" transform="translate(405,440)"/>
<path d="M0 0 C1.48033219 4.44099657 2.47052673 7.49824601 1 12 C-0.92578125 14.2734375 -0.92578125 14.2734375 -3.3125 16.375 C-4.48232422 17.43847656 -4.48232422 17.43847656 -5.67578125 18.5234375 C-8 20 -8 20 -10.29296875 19.7265625 C-11.13794922 19.36691406 -11.13794922 19.36691406 -12 19 C-12 17.68 -12 16.36 -12 15 C-12.66 15 -13.32 15 -14 15 C-14.05784353 12.16566681 -14.04026344 10.58565479 -13 8 C-9.68983697 4.70923246 -4.91148499 0 0 0 Z " fill="#31188E" transform="translate(279,116)"/>
<path d="M0 0 C3.96 0 7.92 0 12 0 C10.68736472 4.37545092 8.97989209 8.02327271 6.62109375 11.9296875 C5.95118408 13.04754639 5.28127441 14.16540527 4.59106445 15.31713867 C4.06302719 16.18947647 4.06302719 16.18947647 3.52432251 17.07943726 C1.69479375 20.10204089 -0.11660446 23.13548193 -1.9296875 26.16796875 C-2.28562485 26.7622316 -2.64156219 27.35649445 -3.00828552 27.96876526 C-5.81543077 32.66464831 -8.53342112 37.40379388 -11.1875 42.1875 C-13.98349485 47.22314378 -16.87448473 52.16049248 -20 57 C-20.66 55.68 -21.32 54.36 -22 53 C-21.3503125 52.4121875 -21.3503125 52.4121875 -20.6875 51.8125 C-17.45087614 48.33612623 -15.68780532 44.38829383 -14 40 C-13.62875 39.278125 -13.2575 38.55625 -12.875 37.8125 C-11.85508364 36.03525867 -11.85508364 36.03525867 -12 34 C-11.34 34 -10.68 34 -10 34 C-7.04952165 29.38987758 -5.4502728 26.63470383 -6 21 C-5.34 20.67 -4.68 20.34 -4 20 C-4 20.66 -4 21.32 -4 22 C-3.34 22 -2.68 22 -2 22 C-2 20.35 -2 18.7 -2 17 C-1.34 17 -0.68 17 0 17 C0.33 14.69 0.66 12.38 1 10 C1.99 10 2.98 10 4 10 C5.32 7.69 6.64 5.38 8 3 C6.865625 2.87625 5.73125 2.7525 4.5625 2.625 C3.386875 2.41875 2.21125 2.2125 1 2 C0.67 1.34 0.34 0.68 0 0 Z " fill="#712FE2" transform="translate(506,32)"/>
<path d="M0 0 C0.94359375 0.16242188 1.8871875 0.32484375 2.859375 0.4921875 C1.1297134 4.70172537 -1.82269245 7.84362326 -4.765625 11.2421875 C-5.28125 11.84417969 -5.796875 12.44617188 -6.328125 13.06640625 C-7.59531635 14.54479616 -8.86748275 16.01891921 -10.140625 17.4921875 C-10.800625 16.8321875 -11.460625 16.1721875 -12.140625 15.4921875 C-11.480625 14.1721875 -10.820625 12.8521875 -10.140625 11.4921875 C-9.480625 11.4921875 -8.820625 11.4921875 -8.140625 11.4921875 C-8.140625 10.8321875 -8.140625 10.1721875 -8.140625 9.4921875 C-8.69492187 9.64816406 -9.24921875 9.80414063 -9.8203125 9.96484375 C-10.90699219 10.25681641 -10.90699219 10.25681641 -12.015625 10.5546875 C-12.73492187 10.75191406 -13.45421875 10.94914062 -14.1953125 11.15234375 C-16.140625 11.4921875 -16.140625 11.4921875 -18.140625 10.4921875 C-19.460625 12.1421875 -20.780625 13.7921875 -22.140625 15.4921875 C-22.800625 15.1621875 -23.460625 14.8321875 -24.140625 14.4921875 C-17.16340693 4.30570898 -12.84086963 -1.26345906 0 0 Z " fill="#131732" transform="translate(326.140625,360.5078125)"/>
<path d="M0 0 C4.80346199 1.35892192 8.63223282 3.46958384 12.6875 6.3125 C13.53924805 6.88000977 13.53924805 6.88000977 14.40820312 7.45898438 C17.92614203 9.89638401 20.0834203 12.17361297 22 16 C20.68 15.67 19.36 15.34 18 15 C18 14.34 18 13.68 18 13 C16.68 12.34 15.36 11.68 14 11 C14 10.34 14 9.68 14 9 C9.98195309 8.15901344 6.98196457 7.94595055 3 9 C3 9.99 3 10.98 3 12 C4.32 11.67 5.64 11.34 7 11 C8.02917971 13.57294928 9.03426612 16.10769353 9.875 18.75 C10.77795791 21.18940766 10.77795791 21.18940766 13.125 21.8125 C14.053125 21.9053125 14.053125 21.9053125 15 22 C15 22.66 15 23.32 15 24 C15.66 24.33 16.32 24.66 17 25 C17 25.66 17 26.32 17 27 C17.66 27.66 18.32 28.32 19 29 C18.67 29.99 18.34 30.98 18 32 C15.64691781 29.72045163 13.38268631 27.45541403 11.2734375 24.9453125 C6.17719422 18.88434827 0.55364604 14.42130165 -6 10 C-5.01 9.67 -4.02 9.34 -3 9 C-0.83333333 8.33333333 -0.83333333 8.33333333 1 7 C1.81171228 4.44480079 1.81171228 4.44480079 2 2 C1.34 2 0.68 2 0 2 C0 1.34 0 0.68 0 0 Z " fill="#712FE2" transform="translate(346,119)"/>
<path d="M0 0 C4.18375468 1.39458489 4.66263889 3.52903739 6.6875 7.375 C7.31011719 8.53773438 7.93273437 9.70046875 8.57421875 10.8984375 C10 14 10 14 10 17 C4.06 17 -1.88 17 -8 17 C-6.51102715 12.53308145 -5.13068235 9.14599898 -2.875 5.125 C-2.06675781 3.67480469 -2.06675781 3.67480469 -1.2421875 2.1953125 C-0.83226562 1.47085937 -0.42234375 0.74640625 0 0 Z " fill="#6B26EA" transform="translate(387,396)"/>
<path d="M0 0 C5.94 0 11.88 0 18 0 C18 1.65 18 3.3 18 5 C15.69 5 13.38 5 11 5 C11 10.61 11 16.22 11 22 C9.35 22 7.7 22 6 22 C6 16.39 6 10.78 6 5 C4.02 5 2.04 5 0 5 C0 3.35 0 1.7 0 0 Z " fill="#8048DC" transform="translate(325,440)"/>
<path d="M0 0 C18.48 0 36.96 0 56 0 C56 0.99 56 1.98 56 3 C37.52 3 19.04 3 0 3 C0 2.01 0 1.02 0 0 Z " fill="#7947D8" transform="translate(102,450)"/>
<path d="M0 0 C0.66 0 1.32 0 2 0 C1.731875 0.78375 1.46375 1.5675 1.1875 2.375 C0.55184088 4.31543309 -0.06570641 6.26513012 -0.55688477 8.24707031 C-2.24102794 14.76591615 -4.87482986 19.21088718 -9.125 24.375 C-10.293492 25.84593866 -11.46145795 27.31729534 -12.62890625 28.7890625 C-13.20141113 29.50094727 -13.77391602 30.21283203 -14.36376953 30.94628906 C-16.6638897 33.83327964 -18.86299796 36.78561289 -21.0625 39.75 C-23.0436963 42.41187603 -24.9893931 44.98811198 -27.19921875 47.46484375 C-29.30222031 50.42546851 -29.57686516 52.21995204 -29.75 55.8125 C-29.83507812 57.27623047 -29.83507812 57.27623047 -29.921875 58.76953125 C-29.94765625 59.50558594 -29.9734375 60.24164063 -30 61 C-30.33 61 -30.66 61 -31 61 C-31.33 56.71 -31.66 52.42 -32 48 C-31.01 48 -30.02 48 -29 48 C-29 46.68 -29 45.36 -29 44 C-28.34 44 -27.68 44 -27 44 C-26.71125 43.05125 -26.4225 42.1025 -26.125 41.125 C-25 38 -25 38 -23 36 C-22.01 36 -21.02 36 -20 36 C-19.71125 35.4225 -19.4225 34.845 -19.125 34.25 C-18.08333333 32.16666667 -17.04166667 30.08333333 -16 28 C-15.34 28 -14.68 28 -14 28 C-14.474375 27.5875 -14.94875 27.175 -15.4375 26.75 C-17.16266518 24.817815 -17.56584875 23.51807725 -18 21 C-16.906875 20.938125 -15.81375 20.87625 -14.6875 20.8125 C-10.86420202 20.4061227 -10.86420202 20.4061227 -9.25 17.5 C-8.8375 16.675 -8.425 15.85 -8 15 C-7.01 14.67 -6.02 14.34 -5 14 C-4.04289573 11.80491727 -4.04289573 11.80491727 -3.4375 9.1875 C-2.57546564 5.89034032 -1.6293856 3.00002757 0 0 Z " fill="#281B6E" transform="translate(261,142)"/>
<path d="M0 0 C18.15 0 36.3 0 55 0 C55 0.99 55 1.98 55 3 C36.85 3 18.7 3 0 3 C0 2.01 0 1.02 0 0 Z " fill="#7A47DA" transform="translate(469,450)"/>
<path d="M0 0 C4.95 0 9.9 0 15 0 C15 0.99 15 1.98 15 3 C11.37 3 7.74 3 4 3 C4 4.65 4 6.3 4 8 C7.3 8 10.6 8 14 8 C14 9.32 14 10.64 14 12 C10.7 12 7.4 12 4 12 C4 14.97 4 17.94 4 21 C2.68 21 1.36 21 0 21 C0 14.07 0 7.14 0 0 Z " fill="#6629DC" transform="translate(241,441)"/>
<path d="M0 0 C0.33 0.99 0.66 1.98 1 3 C-0.40625 5.34765625 -0.40625 5.34765625 -2.5 8.0625 C-3.23992187 9.04605469 -3.97984375 10.02960938 -4.7421875 11.04296875 C-5.48726563 12.01878906 -6.23234375 12.99460938 -7 14 C-22.00004337 33.82370877 -24.59609982 54.7242063 -25 79 C-25.33 79 -25.66 79 -26 79 C-27.51601987 64.92559928 -26.78235403 50.73089868 -23 37 C-22.505 36.505 -22.505 36.505 -22 36 C-21.87625 34.865625 -21.7525 33.73125 -21.625 32.5625 C-21.41875 31.386875 -21.2125 30.21125 -21 29 C-20.01 28.34 -19.02 27.68 -18 27 C-18 25.68 -18 24.36 -18 23 C-17.01 23 -16.02 23 -15 23 C-14.731875 22.071875 -14.46375 21.14375 -14.1875 20.1875 C-13.05426774 17.14566604 -12.35320739 16.05905646 -10 14 C-9.34 13.01 -8.68 12.02 -8 11 C-7.46375 10.319375 -6.9275 9.63875 -6.375 8.9375 C-4.80708433 7.12413466 -4.80708433 7.12413466 -5 5 C-4.01 4.67 -3.02 4.34 -2 4 C-0.79117904 1.99983534 -0.79117904 1.99983534 0 0 Z " fill="#10113A" transform="translate(297,218)"/>
<path d="M0 0 C12.43894061 -1.21191302 12.43894061 -1.21191302 16.11328125 1.640625 C17.54812154 3.82319896 18.51191345 5.42815935 19 8 C18.09375 10.265625 18.09375 10.265625 17 12 C15.35 10.35 13.7 8.7 12 7 C11.01 7.33 10.02 7.66 9 8 C9 9.65 9 11.3 9 13 C8.01 13.495 8.01 13.495 7 14 C5.82508418 12.23462904 4.66031316 10.46250287 3.5 8.6875 C2.8503125 7.70136719 2.200625 6.71523438 1.53125 5.69921875 C0 3 0 3 0 0 Z " fill="#0C102D" transform="translate(95,361)"/>
<path d="M0 0 C0.33 0 0.66 0 1 0 C1 6.6 1 13.2 1 20 C5.95 20 10.9 20 16 20 C16 19.01 16 18.02 16 17 C12.37 17 8.74 17 5 17 C5 15.35 5 13.7 5 12 C8.3 12 11.6 12 15 12 C15 10.68 15 9.36 15 8 C11.7 8 8.4 8 5 8 C5 6.68 5 5.36 5 4 C8.63 4 12.26 4 16 4 C16.33 5.98 16.66 7.96 17 10 C17.66 10 18.32 10 19 10 C18 13 18 13 16 15 C12.875 15.125 12.875 15.125 10 15 C10 14.34 10 13.68 10 13 C8.68 13 7.36 13 6 13 C6 13.99 6 14.98 6 16 C9.63 16 13.26 16 17 16 C17 17.65 17 19.3 17 21 C11.39 21 5.78 21 0 21 C0 14.07 0 7.14 0 0 Z " fill="#D6BDF8" transform="translate(358,441)"/>
<path d="M0 0 C2.91289646 0.08473881 3.77703881 0.15009119 6.125 2 C7.39118536 5.20766959 7.05799067 7.1041021 6.0625 10.375 C2.38903229 12.82397847 0.39893601 12.69037716 -3.9375 12.375 C-5.9375 10.375 -5.9375 10.375 -6.203125 8.5 C-6.19796875 7.79875 -6.1928125 7.0975 -6.1875 6.375 C-6.19265625 5.67375 -6.1978125 4.9725 -6.203125 4.25 C-5.64141538 0.2849909 -3.70326965 0.35269235 0 0 Z " fill="#F2E4FD" transform="translate(282.9375,444.625)"/>
<path d="M0 0 C0.66 0 1.32 0 2 0 C2.53572632 0.95084473 2.53572632 0.95084473 3.08227539 1.92089844 C4.7414319 4.86445112 6.40184472 7.80729262 8.0625 10.75 C8.65506592 11.80082764 9.24763184 12.85165527 9.8581543 13.93432617 C13.4724178 20.3326765 17.13133388 26.69482738 20.92578125 32.98828125 C22 35 22 35 22 37 C21.34 37 20.68 37 20 37 C19.67 36.34 19.34 35.68 19 35 C18.01 34.34 17.02 33.68 16 33 C13.8125 31.375 13.8125 31.375 12 29 C11.65661236 26.24233309 11.81360766 23.79588512 12 21 C11.34 21 10.68 21 10 21 C9.67 20.01 9.34 19.02 9 18 C8.34 18.99 7.68 19.98 7 21 C6.01 21 5.02 21 4 21 C4 19.35 4 17.7 4 16 C5.32 16 6.64 16 8 16 C7.73323796 14.01508358 7.73323796 14.01508358 7 12 C6.01 11.67 5.02 11.34 4 11 C2.83203125 9.2578125 2.83203125 9.2578125 1.8125 7.125 C1.46832031 6.42632812 1.12414062 5.72765625 0.76953125 5.0078125 C0 3 0 3 0 0 Z " fill="#662FE0" transform="translate(207,43)"/>
<path d="M0 0 C1.65 0 3.3 0 5 0 C5 7.26 5 14.52 5 22 C3.35 22 1.7 22 0 22 C0 14.74 0 7.48 0 0 Z " fill="#7C44D7" transform="translate(181,440)"/>
<path d="M0 0 C1.98 0.99 1.98 0.99 4 2 C4 2.66 4 3.32 4 4 C4.66 4.66 5.32 5.32 6 6 C8 9 8 9 8.875 11.25 C10.02430304 14.05940743 11.45343162 16.6071505 12.98046875 19.2265625 C17 26.2183908 17 26.2183908 17 29 C18.32 29 19.64 29 21 29 C20.9071875 30.1446875 20.9071875 30.1446875 20.8125 31.3125 C20.69725888 34.00601493 20.69725888 34.00601493 22.375 35.3125 C24.28065874 37.29145331 24.47473039 38.47768566 25.0625 41.125 C25.371875 42.40375 25.68125 43.6825 26 45 C26.66 45.33 27.32 45.66 28 46 C27.01 46 26.02 46 25 46 C20.14504434 37.56485358 15.36992441 29.09050683 10.66503906 20.57080078 C7.60536756 15.04553407 4.44044291 9.59704815 1.1796875 4.1875 C0 2 0 2 0 0 Z " fill="#261D62" transform="translate(185,172)"/>
<path d="M0 0 C1.32 0.99 2.64 1.98 4 3 C2.14540561 5.91436261 0.42445013 8.588412 -2.0625 11 C-4.40501527 13.41808028 -5.61443089 15.95174796 -7 19 C-7.66 19 -8.32 19 -9 19 C-9.28875 19.61875 -9.5775 20.2375 -9.875 20.875 C-11 23 -11 23 -13 25 C-14 22 -14 22 -13.04370117 19.74755859 C-12.54845947 18.88984863 -12.05321777 18.03213867 -11.54296875 17.1484375 C-11.00736328 16.21515625 -10.47175781 15.281875 -9.91992188 14.3203125 C-9.34822266 13.34835938 -8.77652344 12.37640625 -8.1875 11.375 C-7.62740234 10.3953125 -7.06730469 9.415625 -6.49023438 8.40625 C-2.2777837 1.13889185 -2.2777837 1.13889185 0 0 Z " fill="#4F19CE" transform="translate(390,87)"/>
<path d="M0 0 C1.65 0 3.3 0 5 0 C8 5.75 8 5.75 8 8 C6.68 7.67 5.36 7.34 4 7 C4 11.29 4 15.58 4 20 C2.68 20 1.36 20 0 20 C0 13.4 0 6.8 0 0 Z " fill="#5F20DA" transform="translate(204,441)"/>
<path d="M0 0 C1 3 1 3 0.07885742 5.19799805 C-0.65046997 6.46703979 -0.65046997 6.46703979 -1.39453125 7.76171875 C-2.20337769 9.18278931 -2.20337769 9.18278931 -3.02856445 10.63256836 C-3.61726318 11.6406958 -4.20596191 12.64882324 -4.8125 13.6875 C-5.40184326 14.71302979 -5.99118652 15.73855957 -6.59838867 16.79516602 C-11.53025045 25.32485593 -16.67177086 33.71297996 -22 42 C-22.33 40.68 -22.66 39.36 -23 38 C-22.34 38 -21.68 38 -21 38 C-20.87625 37.2575 -20.7525 36.515 -20.625 35.75 C-20.0361298 33.15897111 -19.26817487 31.31255417 -18 29 C-17.62875 28.2575 -17.2575 27.515 -16.875 26.75 C-16.441875 25.88375 -16.441875 25.88375 -16 25 C-15.34 25 -14.68 25 -14 25 C-14 24.01 -14 23.02 -14 22 C-13.34 22 -12.68 22 -12 22 C-11.67 20.68 -11.34 19.36 -11 18 C-10.34 18 -9.68 18 -9 18 C-8.855625 17.4225 -8.71125 16.845 -8.5625 16.25 C-8.376875 15.5075 -8.19125 14.765 -8 14 C-7.835 13.319375 -7.67 12.63875 -7.5 11.9375 C-7.07018312 10.2719596 -6.54394553 8.63183658 -6 7 C-5.67 7.33 -5.34 7.66 -5 8 C-4.67 7.34 -4.34 6.68 -4 6 C-3.34 6 -2.68 6 -2 6 C-1.855625 5.195625 -1.71125 4.39125 -1.5625 3.5625 C-1 1 -1 1 0 0 Z " fill="#19164E" transform="translate(411,215)"/>
<path d="M0 0 C3.70390021 2.02666238 5.65363011 3.48044516 8 7 C8.77150538 13.72311828 8.77150538 13.72311828 6.87890625 16.85546875 C5.5 18.5 5.5 18.5 3 21 C2.01 20.34 1.02 19.68 0 19 C-1.65549531 18.61500109 -3.3222433 18.27206865 -5 18 C-5 17.67 -5 17.34 -5 17 C-3.906875 16.7525 -2.81375 16.505 -1.6875 16.25 C2.05908409 14.97997149 3.10595266 14.34243648 5 11 C5 11.99 5 12.98 5 14 C5.66 14 6.32 14 7 14 C6.04590484 8.63154414 6.04590484 8.63154414 3.4375 4 C-0.26220185 2.4821736 -4.06718457 2.26123909 -8 3 C-10.93071672 5.11737561 -11.53262763 7.21163896 -12.1875 10.6875 C-12.34605469 11.49574219 -12.50460937 12.30398438 -12.66796875 13.13671875 C-12.77753906 13.75160156 -12.88710938 14.36648438 -13 15 C-13.33 15 -13.66 15 -14 15 C-14.66964286 7.23214286 -14.66964286 7.23214286 -11.625 3.5625 C-7.68567941 -0.28302724 -5.48402115 -0.45700176 0 0 Z " fill="#6F38D5" transform="translate(286,440)"/>
<path d="M0 0 C0.94875 0.04125 1.8975 0.0825 2.875 0.125 C2.875 0.785 2.875 1.445 2.875 2.125 C1.885 2.455 0.895 2.785 -0.125 3.125 C-0.455 3.785 -0.785 4.445 -1.125 5.125 C-2.115 5.125 -3.105 5.125 -4.125 5.125 C-4.125 5.785 -4.125 6.445 -4.125 7.125 C-2.805 7.455 -1.485 7.785 -0.125 8.125 C-2.105 8.785 -4.085 9.445 -6.125 10.125 C-6.125 11.445 -6.125 12.765 -6.125 14.125 C-8.125 16.125 -8.125 16.125 -10.125 18.125 C-11.41501551 19.95252197 -12.66193279 21.80517398 -13.90625 23.6640625 C-14.3084375 24.14617188 -14.710625 24.62828125 -15.125 25.125 C-15.785 25.125 -16.445 25.125 -17.125 25.125 C-15.79021338 20.05281084 -13.37910232 16.01334107 -10.6484375 11.59765625 C-9.33464749 9.46527401 -8.09064399 7.31407321 -6.875 5.125 C-3.97824232 0.15912969 -3.97824232 0.15912969 0 0 Z " fill="#7637E6" transform="translate(424.125,31.875)"/>
<path d="M0 0 C0.99 0.33 1.98 0.66 3 1 C3 1.99 3 2.98 3 4 C3.99 4 4.98 4 6 4 C8 9.75 8 9.75 8 12 C8.99 12.33 9.98 12.66 11 13 C11.69937532 14.31647119 12.36729133 15.65022151 13 17 C13.66 17.33 14.32 17.66 15 18 C15.36871088 19.65919896 15.69595322 21.32774271 16 23 C17.08540367 26.76717124 17.08540367 26.76717124 20 29 C20 29.99 20 30.98 20 32 C21.485 32.495 21.485 32.495 23 33 C23 33.99 23 34.98 23 36 C19.08811327 34.51462155 17.77298014 32.48387177 15.72265625 28.90625 C15.12646484 27.875 14.53027344 26.84375 13.91601562 25.78125 C13.30435547 24.6984375 12.69269531 23.615625 12.0625 22.5 C11.45470703 21.448125 10.84691406 20.39625 10.22070312 19.3125 C6.58814544 12.9800154 3.17858331 6.57194817 0 0 Z " fill="#181745" transform="translate(218,230)"/>
<path d="M0 0 C3.85025879 0.60355408 6.86101159 1.76772603 10.3125 3.5625 C11.19550781 4.01753906 12.07851563 4.47257812 12.98828125 4.94140625 C13.65214844 5.29074219 14.31601562 5.64007813 15 6 C14.01 7.485 14.01 7.485 13 9 C15.67865397 12.76995744 17.49722673 14.79926046 22 16 C24.27274853 16.24030854 26.53414397 16.43597654 28.81640625 16.55859375 C31.48814725 17.09867735 32.9445104 18.25213469 35 20 C19.15587872 19.77780628 19.15587872 19.77780628 14.08203125 15.59375 C12.62594592 13.67635622 11.22994809 11.71161949 9.90234375 9.703125 C7.18963934 5.84852244 4.05567177 4.28592409 0 2 C0 1.34 0 0.68 0 0 Z " fill="#7237D9" transform="translate(289,101)"/>
<path d="M0 0 C0.66 0 1.32 0 2 0 C1.835 1.155 1.67 2.31 1.5 3.5 C0.37818933 12.79964784 1.02174197 22.0652259 4 31 C4.66 31.66 5.32 32.32 6 33 C5.67 33.66 5.34 34.32 5 35 C5.99 35 6.98 35 8 35 C7.01 37.475 7.01 37.475 6 40 C5.34 40 4.68 40 4 40 C3.18479365 37.27161565 2.37275157 34.54235583 1.5625 31.8125 C1.21735352 30.65911133 1.21735352 30.65911133 0.86523438 29.48242188 C-1.00398287 23.17042742 -2.15202477 17.5713678 -2.1875 10.9375 C-2.20167969 9.72964844 -2.21585937 8.52179688 -2.23046875 7.27734375 C-2.01494866 4.21257502 -1.61519102 2.56004585 0 0 Z " fill="#131635" transform="translate(343,285)"/>
<path d="M0 0 C2.61538462 7.84615385 2.61538462 7.84615385 1 12 C-1.0625 13.8125 -1.0625 13.8125 -3 15 C-3.66 14.67 -4.32 14.34 -5 14 C-4.125 9.25 -4.125 9.25 -3 7 C-3.86625 7.309375 -3.86625 7.309375 -4.75 7.625 C-7.53731028 8.08955171 -8.58030999 7.33184618 -11 6 C-9.54550599 4.9944239 -8.08627557 3.99569565 -6.625 3 C-5.40683594 2.1646875 -5.40683594 2.1646875 -4.1640625 1.3125 C-2 0 -2 0 0 0 Z " fill="#3A2296" transform="translate(279,116)"/>
<path d="M0 0 C2.43934225 -0.13501894 4.87124104 -0.23403897 7.3125 -0.3125 C8.34793945 -0.3753418 8.34793945 -0.3753418 9.40429688 -0.43945312 C11.42578125 -0.48828125 11.42578125 -0.48828125 15 0 C16.98046875 2.51953125 16.98046875 2.51953125 18 5 C15.15247365 6.42376318 13.08125973 5.51354329 10 5 C9.01 5.495 9.01 5.495 8 6 C8 6.99 8 7.98 8 9 C4.20620942 7.50958227 2.31656242 5.30937488 0 2 C0 1.34 0 0.68 0 0 Z " fill="#0B0E26" transform="translate(264,361)"/>
<path d="M0 0 C0.33 0.66 0.66 1.32 1 2 C-0.10820675 4.24986808 -1.26798131 6.35560358 -2.55078125 8.50390625 C-2.92478561 9.14238998 -3.29878998 9.78087372 -3.68412781 10.43870544 C-4.47817964 11.79011055 -5.27621735 13.13918024 -6.07788086 14.48608398 C-7.30623618 16.55196533 -8.52020206 18.62579045 -9.73242188 20.70117188 C-10.5043647 22.01091426 -11.27712425 23.32017569 -12.05078125 24.62890625 C-12.41544998 25.25181046 -12.78011871 25.87471466 -13.15583801 26.51649475 C-15.76890368 30.88445184 -15.76890368 30.88445184 -18 32 C-17.57024157 29.42144939 -17.14005508 27.27187163 -15.9375 24.9375 C-14.70962605 22.75862665 -14.70962605 22.75862665 -15 19 C-14.195625 18.525625 -13.39125 18.05125 -12.5625 17.5625 C-9.74523291 16.23520082 -9.74523291 16.23520082 -9.1875 13.3125 C-9.125625 12.549375 -9.06375 11.78625 -9 11 C-8.34 11 -7.68 11 -7 11 C-6.566875 9.88625 -6.566875 9.88625 -6.125 8.75 C-3.5 2.33333333 -3.5 2.33333333 0 0 Z " fill="#1B1E3E" transform="translate(369,288)"/>
<path d="M0 0 C0.66 0.33 1.32 0.66 2 1 C1.63237549 1.64960693 1.26475098 2.29921387 0.88598633 2.96850586 C-0.80553499 5.95796749 -2.49652066 8.94773178 -4.1875 11.9375 C-5.0547168 13.46987305 -5.0547168 13.46987305 -5.93945312 15.03320312 C-9.31831488 21.00825245 -12.67803411 26.99311855 -16 33 C-17.11572266 29.26855469 -17.11572266 29.26855469 -16.07421875 26.8515625 C-15.61660156 26.11679688 -15.15898437 25.38203125 -14.6875 24.625 C-13.02380932 21.85065867 -11.90283153 19.68563142 -10.9375 16.5625 C-9.77539218 13.38607196 -8.89146608 13.44573304 -6 12 C-5.27954236 10.0187415 -4.61998741 8.01495907 -4 6 C-2.71927629 3.9659094 -1.39712274 1.95597184 0 0 Z " fill="#39238D" transform="translate(452,144)"/>
<path d="M0 0 C4.18375468 1.39458489 4.66263889 3.52903739 6.6875 7.375 C7.31011719 8.53773438 7.93273437 9.70046875 8.57421875 10.8984375 C10 14 10 14 10 17 C4.06 17 -1.88 17 -8 17 C-7.34 15.02 -6.68 13.04 -6 11 C-5.34 10.67 -4.68 10.34 -4 10 C-4.33 11.98 -4.66 13.96 -5 16 C-0.71 16 3.58 16 8 16 C7.05125 14.205625 6.1025 12.41125 5.125 10.5625 C4.59132813 9.55316406 4.05765625 8.54382813 3.5078125 7.50390625 C2.24345886 4.89859558 2.24345886 4.89859558 0 4 C0 4.66 0 5.32 0 6 C-0.66 6 -1.32 6 -2 6 C-1.34 4.02 -0.68 2.04 0 0 Z " fill="#723FD5" transform="translate(387,396)"/>
<path d="M0 0 C0.99 0.33 1.98 0.66 3 1 C3 1.66 3 2.32 3 3 C3.639375 3.165 4.27875 3.33 4.9375 3.5 C7 5 7 5 7.48828125 6.9140625 C7.7275978 8.93575155 7.86893028 10.96841939 8 13 C10.31 13.66 12.62 14.32 15 15 C14.505 16.175625 14.505 16.175625 14 17.375 C12.88133489 19.84332497 12.88133489 19.84332497 13 22 C9.46768907 20.82256302 9.25444362 20.21013992 7.51953125 17.0703125 C7.07802734 16.27496094 6.63652344 15.47960937 6.18164062 14.66015625 C5.50391602 13.40525391 5.50391602 13.40525391 4.8125 12.125 C4.34908203 11.29613281 3.88566406 10.46726562 3.40820312 9.61328125 C0 3.39920839 0 3.39920839 0 0 Z " fill="#5424BF" transform="translate(130,75)"/>
<path d="M0 0 C0.66 0.33 1.32 0.66 2 1 C1.53158691 1.80050781 1.53158691 1.80050781 1.05371094 2.6171875 C-0.38344328 5.07662537 -1.81673868 7.53829163 -3.25 10 C-3.98669922 11.25876953 -3.98669922 11.25876953 -4.73828125 12.54296875 C-7.68668496 17.61422313 -10.43527831 22.72400109 -13 28 C-13.33 28 -13.66 28 -14 28 C-13.93976735 26.39479996 -13.85091401 24.79065673 -13.75 23.1875 C-13.70359375 22.29417969 -13.6571875 21.40085937 -13.609375 20.48046875 C-12.8377102 17.3393973 -11.63925914 16.735683 -9 15 C-8.28272222 13.35448038 -7.61674772 11.68577711 -7 10 C-6.01971384 8.65210653 -5.02028865 7.31787285 -4 6 C-3.649375 5.29875 -3.29875 4.5975 -2.9375 3.875 C-2 2 -2 2 0 0 Z " fill="#D6D7E6" transform="translate(360,242)"/>
<path d="M0 0 C1.32 0.33 2.64 0.66 4 1 C3.01 1.495 3.01 1.495 2 2 C1.60480714 11.05782041 3.7236707 16.05175472 9.578125 22.91796875 C12.16028933 25.13779712 13.65349129 25.69739017 17 26 C16.34 26.66 15.68 27.32 15 28 C11.6875 27.375 11.6875 27.375 8 26 C6.0625 22.875 6.0625 22.875 5 20 C4.01 20 3.02 20 2 20 C-0.46254726 13.38190423 -0.18935472 6.99560484 0 0 Z " fill="#1C155F" transform="translate(228,189)"/>
<path d="M0 0 C0.66 0 1.32 0 2 0 C2 0.66 2 1.32 2 2 C2.66 2.33 3.32 2.66 4 3 C3.731875 3.515625 3.46375 4.03125 3.1875 4.5625 C2.2601307 6.46604751 1.42389949 8.41406488 0.625 10.375 C-0.95371178 13.89674166 -2.81606769 16.82977568 -5 20 C-5.69429379 21.3191582 -6.37530495 22.64649406 -7 24 C-7.66 24 -8.32 24 -9 24 C-7.33074706 18.7899075 -5.37217436 13.71535903 -3.375 8.625 C-3.05015625 7.79355469 -2.7253125 6.96210938 -2.390625 6.10546875 C-1.59507268 4.06979076 -0.79816631 2.03465416 0 0 Z " fill="#24205B" transform="translate(373,215)"/>
<path d="M0 0 C2.75 -0.3125 2.75 -0.3125 6 0 C9.04699404 2.96235532 10.6305697 6.00582829 12 10 C11.34 10.66 10.68 11.32 10 12 C8.68 12 7.36 12 6 12 C6.33 10.35 6.66 8.7 7 7 C5.68 7 4.36 7 3 7 C3 6.01 3 5.02 3 4 C2.34 4 1.68 4 1 4 C0.67 2.68 0.34 1.36 0 0 Z " fill="#6E24F2" transform="translate(196,33)"/>
<path d="M0 0 C1.32 0.66 2.64 1.32 4 2 C-1.07902392 11.17909766 -6.22513465 20.23557414 -12 29 C-13 26 -13 26 -12.125 24.125 C-11.75375 23.42375 -11.3825 22.7225 -11 22 C-10.62331656 20.34259285 -10.27942455 18.67654729 -10 17 C-9.01 17 -8.02 17 -7 17 C-6.74605469 16.46890625 -6.49210937 15.9378125 -6.23046875 15.390625 C-4.41650476 11.6675828 -2.6686482 8.20237785 0 5 C-0.66 4.67 -1.32 4.34 -2 4 C-1.01 4 -0.02 4 1 4 C0.67 2.68 0.34 1.36 0 0 Z " fill="#171941" transform="translate(384,257)"/>
<path d="M0 0 C0.66 0.33 1.32 0.66 2 1 C1.06134963 3.8159511 0.29203221 5.71291748 -1.84375 7.8125 C-4.26448206 10.26831514 -5.93681797 12.82101364 -7.75 15.75 C-8.36359375 16.73484375 -8.9771875 17.7196875 -9.609375 18.734375 C-10.06828125 19.48203125 -10.5271875 20.2296875 -11 21 C-11.66 20.67 -12.32 20.34 -13 20 C-11.60240043 14.91781973 -9.44978893 10.03328438 -6 6 C-5.01 6 -4.02 6 -3 6 C-2.690625 5.195625 -2.38125 4.39125 -2.0625 3.5625 C-1 1 -1 1 0 0 Z " fill="#652ADA" transform="translate(412,51)"/>
<path d="M0 0 C0.66 0 1.32 0 2 0 C1.731875 0.78375 1.46375 1.5675 1.1875 2.375 C0.01947756 5.73634746 0.01947756 5.73634746 -0.484375 8.203125 C-2.3920018 16.19453457 -6.87987752 21.75280653 -12 28 C-13.125 24.25 -13.125 24.25 -12 22 C-11.01 22 -10.02 22 -9 22 C-9.33 21.01 -9.66 20.02 -10 19 C-9.25 16.875 -9.25 16.875 -8 15 C-7.01 14.67 -6.02 14.34 -5 14 C-4.04289573 11.80491727 -4.04289573 11.80491727 -3.4375 9.1875 C-2.57546564 5.89034032 -1.6293856 3.00002757 0 0 Z " fill="#32217F" transform="translate(261,142)"/>
<path d="M0 0 C-0.33 1.98 -0.66 3.96 -1 6 C-3.97 6 -6.94 6 -10 6 C-11 3 -11 3 -10 0 C-6.7169902 -1.6415049 -3.57454967 -0.51888624 0 0 Z " fill="#04092E" transform="translate(282,366)"/>
<path d="M0 0 C0.66 0.99 1.32 1.98 2 3 C1.34 3 0.68 3 0 3 C0 4.32 0 5.64 0 7 C-0.99 7.495 -0.99 7.495 -2 8 C-2.33 8.99 -2.66 9.98 -3 11 C-3.66 11 -4.32 11 -5 11 C-4.67 11.99 -4.34 12.98 -4 14 C-5.125 17.625 -5.125 17.625 -7 21 C-9.6875 21.9375 -9.6875 21.9375 -12 22 C-10.2657267 17.02642312 -7.56672043 12.68501047 -4.875 8.1875 C-4.40707031 7.39923828 -3.93914062 6.61097656 -3.45703125 5.79882812 C-2.30784603 3.86397546 -1.15542997 1.93112772 0 0 Z " fill="#EAEBF1" transform="translate(389,256)"/>
<path d="M0 0 C0 5.28 0 10.56 0 16 C-1.32 16 -2.64 16 -4 16 C-4.0810206 13.89646505 -4.13919907 11.79204048 -4.1875 9.6875 C-4.22230469 8.51574219 -4.25710938 7.34398437 -4.29296875 6.13671875 C-4 3 -4 3 -2.55078125 1.08203125 C-1 0 -1 0 0 0 Z " fill="#5F1DD9" transform="translate(336,445)"/>
<path d="M0 0 C0.66 0 1.32 0 2 0 C2.49882827 9.36688649 1.96090327 17.38431259 -2 26 C-2.66 26.66 -3.32 27.32 -4 28 C-4 25.36 -4 22.72 -4 20 C-3.34 19.67 -2.68 19.34 -2 19 C-1.02031598 14.29751672 -0.92847426 9.8070452 -1.0625 5.015625 C-1 3 -1 3 0 0 Z " fill="#27215F" transform="translate(303,189)"/>
<path d="M0 0 C0.66 1.32 1.32 2.64 2 4 C0.73046875 5.46484375 -0.5390625 6.9296875 -1.80859375 8.39453125 C-3.20871231 10.10712971 -3.20871231 10.10712971 -4 13 C-4.66 13 -5.32 13 -6 13 C-6 13.99 -6 14.98 -6 16 C-6.66 16 -7.32 16 -8 16 C-8 16.66 -8 17.32 -8 18 C-7.34 18 -6.68 18 -6 18 C-7.26779557 20.53559113 -8.91062614 22.10056922 -11 24 C-11.66 24 -12.32 24 -13 24 C-11.71075644 20.59797567 -10.2347924 17.49435446 -8.3984375 14.35546875 C-7.90859375 13.51435547 -7.41875 12.67324219 -6.9140625 11.80664062 C-6.40617187 10.94232422 -5.89828125 10.07800781 -5.375 9.1875 C-4.859375 8.30384766 -4.34375 7.42019531 -3.8125 6.50976562 C-2.54468886 4.33805211 -1.27377652 2.1682182 0 0 Z " fill="#E2D0FA" transform="translate(494,74)"/>
<path d="M0 0 C4.14084507 1.38028169 4.14084507 1.38028169 6 4 C6.23928325 5.36693993 6.42172666 6.74443341 6.5625 8.125 C6.706875 9.40375 6.85125 10.6825 7 12 C7.66 12.33 8.32 12.66 9 13 C9.72159424 14.64363134 10.39351421 16.31050386 11 18 C10.34 18.66 9.68 19.32 9 20 C7.48938849 17.42236925 5.99141595 14.83870395 4.5 12.25 C4.07074219 11.52039063 3.64148438 10.79078125 3.19921875 10.0390625 C2.79316406 9.33007812 2.38710937 8.62109375 1.96875 7.890625 C1.59169922 7.24125977 1.21464844 6.59189453 0.82617188 5.92285156 C0 4 0 4 0 0 Z " fill="#6222DB" transform="translate(120,57)"/>
<path d="M0 0 C0.66 0 1.32 0 2 0 C3.33858524 2.28874173 4.67101014 4.58069656 6 6.875 C6.3815625 7.52597656 6.763125 8.17695312 7.15625 8.84765625 C10 13.7734375 10 13.7734375 10 16 C9.34 16 8.68 16 8 16 C7.67 15.34 7.34 14.68 7 14 C6.01 13.34 5.02 12.68 4 12 C1.8125 10.375 1.8125 10.375 0 8 C-0.34338764 5.24233309 -0.18639234 2.79588512 0 0 Z " fill="#602DD3" transform="translate(219,64)"/>
<path d="M0 0 C0.56460937 0.31066406 1.12921875 0.62132812 1.7109375 0.94140625 C4.73062711 2.33788387 7.71450646 2.78171788 10.9765625 3.33984375 C13 4 13 4 15 7 C14 8 14 8 10.3125 8.375 C6.9630477 8.34482475 5.12726331 7.77551595 2.5 5.6875 C0 3 0 3 0 0 Z " fill="#692BD6" transform="translate(273,454)"/>
<path d="M0 0 C0.33 0 0.66 0 1 0 C1 6.6 1 13.2 1 20 C2.32 20 3.64 20 5 20 C5 16.04 5 12.08 5 8 C9.875 11.625 9.875 11.625 11 15 C9.68 15 8.36 15 7 15 C6.67 16.98 6.34 18.96 6 21 C4.02 21 2.04 21 0 21 C0 14.07 0 7.14 0 0 Z " fill="#CAADF2" transform="translate(203,441)"/>
<path d="M0 0 C0.66 0 1.32 0 2 0 C2 2.97 2 5.94 2 9 C-1.3 9 -4.6 9 -8 9 C-8 6.36 -8 3.72 -8 1 C-7.5875 1.66 -7.175 2.32 -6.75 3 C-6.1725 3.66 -5.595 4.32 -5 5 C-3.68 5 -2.36 5 -1 5 C-0.67 3.35 -0.34 1.7 0 0 Z " fill="#DEC5FC" transform="translate(439,440)"/>
<path d="M0 0 C0.99 0 1.98 0 3 0 C1.36047417 4.6393176 -1.06871052 8.63855858 -3.625 12.8125 C-4.04523438 13.50537109 -4.46546875 14.19824219 -4.8984375 14.91210938 C-5.9289467 16.61010748 -6.96401681 18.30533614 -8 20 C-8.66 18.68 -9.32 17.36 -10 16 C-9.566875 15.608125 -9.13375 15.21625 -8.6875 14.8125 C-5.44072617 11.3252244 -3.72960648 7.38166976 -2 3 C-1.34 2.01 -0.68 1.02 0 0 Z " fill="#6030CD" transform="translate(494,69)"/>
<path d="M0 0 C0.2475 0.639375 0.495 1.27875 0.75 1.9375 C1.81562433 4.18741541 1.81562433 4.18741541 4.125 4.75 C4.74375 4.8325 5.3625 4.915 6 5 C6 5.66 6 6.32 6 7 C6.66 7.33 7.32 7.66 8 8 C8 8.66 8 9.32 8 10 C8.66 10.66 9.32 11.32 10 12 C9.67 12.99 9.34 13.98 9 15 C4.74790208 10.87675353 0.86364295 6.48717034 -3 2 C-2.01 1.34 -1.02 0.68 0 0 Z " fill="#5D26CE" transform="translate(355,136)"/>
<path d="M0 0 C1.65 0 3.3 0 5 0 C5 4.33685836 2.91985986 5.9443327 0 9 C-0.99 9 -1.98 9 -3 9 C-3.1875 6.125 -3.1875 6.125 -3 3 C-2.01 2.34 -1.02 1.68 0 1 C0 0.67 0 0.34 0 0 Z " fill="#F8F3FB" transform="translate(280,446)"/>
<path d="M0 0 C0.33 0 0.66 0 1 0 C1.375 3.0625 1.375 3.0625 1 7 C-0.30078125 8.63671875 -0.30078125 8.63671875 -1.9375 10.25 C-6.10823846 14.53850049 -5.97921961 19.25422145 -6 25 C-6.33 25 -6.66 25 -7 25 C-7.33 20.71 -7.66 16.42 -8 12 C-7.01 12 -6.02 12 -5 12 C-5 10.68 -5 9.36 -5 8 C-4.34 8 -3.68 8 -3 8 C-2.690625 7.05125 -2.38125 6.1025 -2.0625 5.125 C-1 2 -1 2 0 0 Z " fill="#362C76" transform="translate(237,178)"/>
<path d="M0 0 C0.33 0.66 0.66 1.32 1 2 C1.66 2 2.32 2 3 2 C2.54979057 7.85272256 -0.03839227 12.08220119 -3 17 C-4.32 16.67 -5.64 16.34 -7 16 C-7 15.34 -7 14.68 -7 14 C-6.34 14 -5.68 14 -5 14 C-2.00579518 9.32155498 -0.59377722 6.68711895 -1 1 C-0.67 0.67 -0.34 0.34 0 0 Z " fill="#6328DE" transform="translate(501,52)"/>
<path d="M0 0 C2.9375 1.5 2.9375 1.5 5 3 C4.67 3.99 4.34 4.98 4 6 C0.7 5.67 -2.6 5.34 -6 5 C-6 4.67 -6 4.34 -6 4 C-2.535 3.505 -2.535 3.505 1 3 C-0.43655854 2.91868537 -1.8744483 2.86066441 -3.3125 2.8125 C-4.11300781 2.77769531 -4.91351563 2.74289062 -5.73828125 2.70703125 C-8.47851584 3.06198392 -9.29171079 3.89366282 -11 6 C-11.66 5.67 -12.32 5.34 -13 5 C-8.65797607 0.76387909 -6.3324381 -0.92108191 0 0 Z " fill="#733ED0" transform="translate(405,440)"/>
<path d="M0 0 C0.33 0 0.66 0 1 0 C2.35744681 7.40425532 2.35744681 7.40425532 0.6875 10.1875 C0.130625 10.785625 -0.42625 11.38375 -1 12 C-1.70211894 13.65204456 -2.36971413 15.31923769 -3 17 C-3.875 19.25 -3.875 19.25 -5 21 C-7.0703125 21.609375 -7.0703125 21.609375 -9 22 C-8.60167969 21.24976563 -8.20335937 20.49953125 -7.79296875 19.7265625 C-4.45172109 13.27169476 -1.77858717 7.05194212 0 0 Z " fill="#D4D4E6" transform="translate(304,203)"/>
<path d="M0 0 C0 0.33 0 0.66 0 1 C-1.01320313 1.18175781 -1.01320313 1.18175781 -2.046875 1.3671875 C-2.93890625 1.53476563 -3.8309375 1.70234375 -4.75 1.875 C-6.07257813 2.11863281 -6.07257813 2.11863281 -7.421875 2.3671875 C-9.86947744 2.96796264 -11.80599857 3.77997117 -14 5 C-14 5.99 -14 6.98 -14 8 C-16.26216255 9.54779543 -18.55224566 10.77612283 -21 12 C-20.690625 11.401875 -20.38125 10.80375 -20.0625 10.1875 C-18.89790296 7.91043228 -18.89790296 7.91043228 -18 5 C-12.53872756 -0.06201492 -7.18213595 -0.66228713 0 0 Z " fill="#1B145B" transform="translate(286,198)"/>
<path d="M0 0 C3.30249326 0.00358577 6.55576338 0.12202444 9.84765625 0.37890625 C9.84765625 0.70890625 9.84765625 1.03890625 9.84765625 1.37890625 C4.40265625 1.87390625 4.40265625 1.87390625 -1.15234375 2.37890625 C-1.81234375 4.02890625 -2.47234375 5.67890625 -3.15234375 7.37890625 C-5.15234375 9.69140625 -5.15234375 9.69140625 -7.15234375 11.37890625 C-7.81234375 11.37890625 -8.47234375 11.37890625 -9.15234375 11.37890625 C-8.55491335 9.6861868 -7.86807902 8.02509738 -7.15234375 6.37890625 C-6.71921875 5.28578125 -6.28609375 4.19265625 -5.83984375 3.06640625 C-3.15234375 0.37890625 -3.15234375 0.37890625 0 0 Z " fill="#292B40" transform="translate(385.15234375,360.62109375)"/>
<path d="M0 0 C4.73958333 4.25347222 4.73958333 4.25347222 5.9375 7.6875 C5.958125 8.450625 5.97875 9.21375 6 10 C5.34 10.66 4.68 11.32 4 12 C1.69 9.36 -0.62 6.72 -3 4 C-2.34 3.67 -1.68 3.34 -1 3 C-0.34 3.33 0.32 3.66 1 4 C0.67 2.68 0.34 1.36 0 0 Z " fill="#733BDD" transform="translate(211,445)"/>
<path d="M0 0 C0.66 0 1.32 0 2 0 C-0.08852505 8.11593505 -3.35329853 15.47056459 -7 23 C-7.66 22.34 -8.32 21.68 -9 21 C-8.566875 20.154375 -8.13375 19.30875 -7.6875 18.4375 C-4.73789852 12.42905255 -2.31142711 6.27387358 0 0 Z " fill="#DAD9ED" transform="translate(371,216)"/>
<path d="M0 0 C0.33 0 0.66 0 1 0 C1 3.96 1 7.92 1 12 C-2.28788824 8.88983545 -4.83735988 5.98381075 -7 2 C-5.02 2 -3.04 2 -1 2 C-0.67 1.34 -0.34 0.68 0 0 Z " fill="#EEDCFE" transform="translate(217,441)"/>
<path d="M0 0 C0.66 0 1.32 0 2 0 C2.19335938 0.69867188 2.38671875 1.39734375 2.5859375 2.1171875 C2.84632813 3.02726562 3.10671875 3.93734375 3.375 4.875 C3.63023437 5.77992188 3.88546875 6.68484375 4.1484375 7.6171875 C4.8604315 10.14569726 4.8604315 10.14569726 7 12 C6.67 12.66 6.34 13.32 6 14 C6.99 14 7.98 14 9 14 C8.34 15.65 7.68 17.3 7 19 C6.34 19 5.68 19 5 19 C4.16338138 16.2092793 3.33057263 13.41751988 2.5 10.625 C2.26152344 9.8309375 2.02304687 9.036875 1.77734375 8.21875 C1.55175781 7.45820313 1.32617188 6.69765625 1.09375 5.9140625 C0.88427734 5.2123291 0.67480469 4.5105957 0.45898438 3.78759766 C0 2 0 2 0 0 Z " fill="#21243F" transform="translate(342,306)"/>
<path d="M0 0 C1.32 0.33 2.64 0.66 4 1 C2.11545186 5.71137036 0.28754713 10.07320759 -3 14 C-6.75 15.375 -6.75 15.375 -10 16 C-7.44384203 13.44384203 -4.92081397 10.9313721 -2.1875 8.5625 C0.3072977 6.13729303 0.3072977 6.13729303 0.3125 2.6875 C0.209375 1.800625 0.10625 0.91375 0 0 Z " fill="#E1DAF5" transform="translate(280,121)"/>
<path d="M0 0 C0.66 0.66 1.32 1.32 2 2 C-0.64 6.62 -3.28 11.24 -6 16 C-6.66 15.67 -7.32 15.34 -8 15 C-7.38722388 12.03824877 -6.74627478 10.61941217 -5 8 C-4.34 8 -3.68 8 -3 8 C-2.814375 6.8553125 -2.814375 6.8553125 -2.625 5.6875 C-2 3 -2 3 0 0 Z " fill="#572CC1" transform="translate(483,89)"/>
<path d="M0 0 C0.99 0 1.98 0 3 0 C3 6.6 3 13.2 3 20 C2.01 19.67 1.02 19.34 0 19 C0.66 19 1.32 19 2 19 C1.85962479 17.18706911 1.71255111 15.3746557 1.5625 13.5625 C1.48128906 12.55316406 1.40007812 11.54382813 1.31640625 10.50390625 C1.26788532 8.06359221 1.26788532 8.06359221 0 7 C-0.04092937 4.66702567 -0.04241723 2.33294775 0 0 Z " fill="#5D18D4" transform="translate(219,441)"/>
<path d="M0 0 C0.82638376 2.89234315 1 4.88742431 1 8 C1.99 7.67 2.98 7.34 4 7 C3.34 9.31 2.68 11.62 2 14 C1.01 14 0.02 14 -1 14 C-1.02705729 12.22925083 -1.04642195 10.45838289 -1.0625 8.6875 C-1.07410156 7.70136719 -1.08570313 6.71523438 -1.09765625 5.69921875 C-1 3 -1 3 0 0 Z " fill="#EAEAEC" transform="translate(326,290)"/>
<path d="M0 0 C2 3 2 3 2.9375 5.875 C4.77973603 11.38347222 4.77973603 11.38347222 9 15 C8.67 15.99 8.34 16.98 8 18 C4.18371449 14.60774621 1.07813555 10.67580499 -1 6 C-0.8125 2.5 -0.8125 2.5 0 0 Z " fill="#121436" transform="translate(245,270)"/>
<path d="M0 0 C1.32 0 2.64 0 4 0 C3.9071875 1.1446875 3.9071875 1.1446875 3.8125 2.3125 C3.69725888 5.00601493 3.69725888 5.00601493 5.375 6.3125 C7.28065874 8.29145331 7.47473039 9.47768566 8.0625 12.125 C8.371875 13.40375 8.68125 14.6825 9 16 C9.66 16.33 10.32 16.66 11 17 C10.01 17 9.02 17 8 17 C6.98696238 15.27843904 5.99005152 13.54738194 5 11.8125 C4.443125 10.84957031 3.88625 9.88664063 3.3125 8.89453125 C1.97783242 5.95111257 1.72084539 4.18119943 2 1 C1.34 0.67 0.68 0.34 0 0 Z " fill="#1C155A" transform="translate(202,201)"/>
<path d="M0 0 C6.65480267 3.08393294 12.69540717 6.19642653 16 13 C14.68 12.67 13.36 12.34 12 12 C12 11.34 12 10.68 12 10 C10.68 9.34 9.36 8.68 8 8 C8 7.34 8 6.68 8 6 C6.02 5.34 4.04 4.68 2 4 C2 3.34 2 2.68 2 2 C1.34 2 0.68 2 0 2 C0 1.34 0 0.68 0 0 Z " fill="#703ADB" transform="translate(352,122)"/>
<path d="M0 0 C2.95857409 -0.05379226 5.91617721 -0.09357093 8.875 -0.125 C9.71675781 -0.14175781 10.55851562 -0.15851562 11.42578125 -0.17578125 C12.23144531 -0.18222656 13.03710938 -0.18867188 13.8671875 -0.1953125 C14.98262939 -0.21102295 14.98262939 -0.21102295 16.12060547 -0.22705078 C18 0 18 0 20 2 C18.86111328 1.98259766 18.86111328 1.98259766 17.69921875 1.96484375 C16.70535156 1.95582031 15.71148437 1.94679687 14.6875 1.9375 C13.70136719 1.92589844 12.71523437 1.91429687 11.69921875 1.90234375 C8.90036151 1.87670138 8.90036151 1.87670138 6 3 C4.33378384 3.03874921 2.66605828 3.0450286 1 3 C0.67 2.01 0.34 1.02 0 0 Z " fill="#6D24E8" transform="translate(106,32)"/>
<path d="M0 0 C2.40575607 2.18517099 3.79535581 4.25919671 5.1875 7.1875 C5.53167969 7.90292969 5.87585938 8.61835938 6.23046875 9.35546875 C6.48441406 9.89816406 6.73835938 10.44085938 7 11 C3.25 12.125 3.25 12.125 1 11 C0.5859375 9.00390625 0.5859375 9.00390625 0.375 6.5625 C0.30023438 5.75941406 0.22546875 4.95632813 0.1484375 4.12890625 C0.05264572 2.75505053 0 1.3771912 0 0 Z " fill="#E0E2E6" transform="translate(396,389)"/>
<path d="M0 0 C2.43934225 -0.13501894 4.87124104 -0.23403897 7.3125 -0.3125 C8.34793945 -0.3753418 8.34793945 -0.3753418 9.40429688 -0.43945312 C11.42578125 -0.48828125 11.42578125 -0.48828125 15 0 C16.98046875 2.51953125 16.98046875 2.51953125 18 5 C17.01 5.495 17.01 5.495 16 6 C13.375 5.0625 13.375 5.0625 11 4 C11 3.34 11 2.68 11 2 C7.37 2 3.74 2 0 2 C0 1.34 0 0.68 0 0 Z " fill="#2A2C42" transform="translate(264,361)"/>
<path d="M0 0 C4.62 0 9.24 0 14 0 C14 0.33 14 0.66 14 1 C10.7 1 7.4 1 4 1 C4.99 1.66 5.98 2.32 7 3 C5.68 4.32 4.36 5.64 3 7 C0 3.375 0 3.375 0 0 Z " fill="#23243C" transform="translate(95,361)"/>
<path d="M0 0 C1.003813 2.63424866 1.10520035 3.72701174 0.07421875 6.40234375 C-0.61220703 7.65724609 -0.61220703 7.65724609 -1.3125 8.9375 C-3.09386491 12.23991574 -4.66306809 15.49133833 -6 19 C-7.86391458 13.82644222 -5.19362376 9.71476773 -3 5 C-2.05032575 3.30415313 -1.07814339 1.61721508 0 0 Z " fill="#EAEBED" transform="translate(337,261)"/>
<path d="M0 0 C0.66 0 1.32 0 2 0 C3.7265625 2.5546875 3.7265625 2.5546875 5.625 5.875 C6.25664062 6.96554688 6.88828125 8.05609375 7.5390625 9.1796875 C9 12 9 12 9 14 C8.34 14 7.68 14 7 14 C7 13.34 7 12.68 7 12 C6.01 11.67 5.02 11.34 4 11 C2.83203125 9.2578125 2.83203125 9.2578125 1.8125 7.125 C1.46832031 6.42632812 1.12414062 5.72765625 0.76953125 5.0078125 C0 3 0 3 0 0 Z " fill="#6F3BDD" transform="translate(207,43)"/>
<path d="M0 0 C0.33 0.66 0.66 1.32 1 2 C4.6441774 4.4294516 6.71241272 4.16179575 11 4 C11.33 3.34 11.66 2.68 12 2 C12.66 2 13.32 2 14 2 C13.67 3.32 13.34 4.64 13 6 C8.05 6 3.1 6 -2 6 C-1 1 -1 1 0 0 Z " fill="#2B2D3C" transform="translate(354,407)"/>
<path d="M0 0 C-0.42797202 5.70629354 -2.84345952 9.41078616 -6 14 C-7 11 -7 11 -5.5625 8.0625 C-4.7890625 6.5465625 -4.7890625 6.5465625 -4 5 C-4 3.68 -4 2.36 -4 1 C-2 0 -2 0 0 0 Z " fill="#121430" transform="translate(358,306)"/>
<path d="M0 0 C3.76854223 1.25618074 4.07958456 2.66014706 6 6 C6.66 6.33 7.32 6.66 8 7 C8 8.32 8 9.64 8 11 C4.71573897 9.94434467 3.42848444 8.38339648 1.75 5.5 C0 2 0 2 0 0 Z " fill="#302078" transform="translate(177,159)"/>
<path d="M0 0 C2.74277578 3.19990508 4.6302836 6.00499382 6 10 C3.03 9.505 3.03 9.505 0 9 C-0.84454356 5.62182575 -1.10844919 3.32534757 0 0 Z " fill="#5E31C8" transform="translate(229,80)"/>
<path d="M0 0 C3.08089673 2.77280706 4.68775452 5.06326356 6 9 C5.34 9.66 4.68 10.32 4 11 C2.68 11 1.36 11 0 11 C0.29296875 9.01432292 0.5859375 7.02864583 0.87890625 5.04296875 C1.13904799 2.7974658 1.13904799 2.7974658 0 0 Z " fill="#6B2FE7" transform="translate(202,34)"/>
<path d="M0 0 C1.98 0.99 1.98 0.99 4 2 C4 2.66 4 3.32 4 4 C4.66 4.66 5.32 5.32 6 6 C6.99 7.485 6.99 7.485 8 9 C7.34 10.32 6.68 11.64 6 13 C4.99491199 11.21118264 3.99607264 9.41885304 3 7.625 C2.1646875 6.12839844 2.1646875 6.12839844 1.3125 4.6015625 C0 2 0 2 0 0 Z " fill="#291B70" transform="translate(185,172)"/>
<path d="M0 0 C0.33 0 0.66 0 1 0 C0.59683075 6.31631828 -1.71232131 10.64993984 -5 16 C-5.98245308 13.4018259 -6.14815584 12.34750375 -5.0390625 9.74609375 C-4.57242187 8.98425781 -4.10578125 8.22242188 -3.625 7.4375 C-2.09290076 4.89969316 -0.94307226 2.82921678 0 0 Z " fill="#301F82" transform="translate(441,161)"/>
<path d="M0 0 C1 3 1 3 -0.43359375 6.13671875 C-1.09135973 7.3260128 -1.75977815 8.50946371 -2.4375 9.6875 C-2.77587891 10.29400391 -3.11425781 10.90050781 -3.46289062 11.52539062 C-4.29957915 13.0220025 -5.14862831 14.51169189 -6 16 C-6.66 16 -7.32 16 -8 16 C-6.57250019 12.20950293 -4.83763458 8.72877544 -2.875 5.1875 C-2.33617187 4.21167969 -1.79734375 3.23585938 -1.2421875 2.23046875 C-0.83226562 1.49441406 -0.42234375 0.75835937 0 0 Z " fill="#5A31BC" transform="translate(388,88)"/>
<path d="M0 0 C3.61569144 1.20523048 3.94669545 2.07185564 5.75 5.3125 C6.19859375 6.09238281 6.6471875 6.87226562 7.109375 7.67578125 C8 10 8 10 7 14 C4.69 9.38 2.38 4.76 0 0 Z " fill="#7736DF" transform="translate(104,32)"/>
<path d="M0 0 C0.33 0 0.66 0 1 0 C1.13277344 0.68707031 1.26554687 1.37414062 1.40234375 2.08203125 C1.57894531 2.98308594 1.75554687 3.88414062 1.9375 4.8125 C2.11152344 5.70582031 2.28554688 6.59914063 2.46484375 7.51953125 C2.97741153 10.11397171 2.97741153 10.11397171 4 13 C6.00016466 14.20882096 6.00016466 14.20882096 8 15 C6.35 14.67 4.7 14.34 3 14 C3 13.34 3 12.68 3 12 C1.68 12.33 0.36 12.66 -1 13 C-0.67 8.71 -0.34 4.42 0 0 Z " fill="#DDC6FC" transform="translate(390,447)"/>
<path d="M0 0 C0.33 0 0.66 0 1 0 C1.144375 1.11375 1.28875 2.2275 1.4375 3.375 C1.78372035 6.82142047 1.78372035 6.82142047 3 9 C2.01 9.495 2.01 9.495 1 10 C1 10.66 1 11.32 1 12 C0.34 12 -0.32 12 -1 12 C-2.1875 9.9375 -2.1875 9.9375 -3 7 C-2.27873258 4.45187276 -1.21291073 2.37917104 0 0 Z " fill="#783CE1" transform="translate(395,448)"/>
<path d="M0 0 C0.99 0 1.98 0 3 0 C3.3690205 9.41002278 3.3690205 9.41002278 1 14 C0.34 13.67 -0.32 13.34 -1 13 C-0.67 8.71 -0.34 4.42 0 0 Z " fill="#E4E5EE" transform="translate(275,313)"/>
<path d="M0 0 C0 0.66 0 1.32 0 2 C-0.99 2.66 -1.98 3.32 -3 4 C-3.72965366 6.56282742 -3.72965366 6.56282742 -4 9 C-6.79872437 6.47211993 -8.45773019 4.79588866 -9 1 C-5.92677456 0.08941469 -3.19902639 -0.08886184 0 0 Z " fill="#221076" transform="translate(252,162)"/>
<path d="M0 0 C0.33 1.98 0.66 3.96 1 6 C-1.97 5.67 -4.94 5.34 -8 5 C-3.16129032 0 -3.16129032 0 0 0 Z " fill="#4D389F" transform="translate(279,116)"/>
<path d="M0 0 C0.33 0 0.66 0 1 0 C1.33 1.98 1.66 3.96 2 6 C4.97 6.33 7.94 6.66 11 7 C11 7.33 11 7.66 11 8 C6.71 8 2.42 8 -2 8 C-2 3 -2 3 0 0 Z " fill="#5F1EE1" transform="translate(362,452)"/>
<path d="M0 0 C0.66 0.99 1.32 1.98 2 3 C1.34 3 0.68 3 0 3 C0 4.32 0 5.64 0 7 C-0.99 7.495 -0.99 7.495 -2 8 C-2.33 8.99 -2.66 9.98 -3 11 C-3.66 11 -4.32 11 -5 11 C-5 11.99 -5 12.98 -5 14 C-5.66 14 -6.32 14 -7 14 C-5.23570801 9.02790438 -2.6060834 4.56561939 0 0 Z " fill="#D8D9E7" transform="translate(389,256)"/>
<path d="M0 0 C0.99 0 1.98 0 3 0 C3 0.66 3 1.32 3 2 C2.34 2.66 1.68 3.32 1 4 C-0.0206239 5.78919089 -0.96147029 7.60917899 -1.90234375 9.44140625 C-3 11 -3 11 -6 12 C-4.43358249 7.69235185 -2.31663844 3.93828536 0 0 Z " fill="#D2CFE9" transform="translate(424,196)"/>
<path d="M0 0 C3 1 3 1 4.0625 2.9375 C4.371875 3.618125 4.68125 4.29875 5 5 C5.66 5.66 6.32 6.32 7 7 C7.70710678 8.64991582 8.37943989 10.31562256 9 12 C8.34 12.66 7.68 13.32 7 14 C4.69 9.38 2.38 4.76 0 0 Z " fill="#6432CC" transform="translate(122,63)"/>
<path d="M0 0 C5.875 3.75 5.875 3.75 7 6 C6.21625 5.938125 5.4325 5.87625 4.625 5.8125 C3.325625 5.9053125 3.325625 5.9053125 2 6 C1.34 6.99 0.68 7.98 0 9 C0 6.03 0 3.06 0 0 Z " fill="#ECECF3" transform="translate(474,379)"/>
<path d="M0 0 C0.99 1.32 1.98 2.64 3 4 C0.66666667 6.33333333 -1.66666667 8.66666667 -4 11 C-4.66 10.67 -5.32 10.34 -6 10 C-4.02 6.7 -2.04 3.4 0 0 Z " fill="#D1D3DD" transform="translate(354,315)"/>
<path d="M0 0 C0.33 0.99 0.66 1.98 1 3 C-0.43359375 5.48046875 -0.43359375 5.48046875 -2.4375 8.1875 C-3.09621094 9.08855469 -3.75492187 9.98960937 -4.43359375 10.91796875 C-5.20896484 11.94857422 -5.20896484 11.94857422 -6 13 C-6.33 12.01 -6.66 11.02 -7 10 C-6.34 9.01 -5.68 8.02 -5 7 C-5 6.34 -5 5.68 -5 5 C-4.01 4.67 -3.02 4.34 -2 4 C-0.79117904 1.99983534 -0.79117904 1.99983534 0 0 Z " fill="#211E54" transform="translate(297,218)"/>
<path d="M0 0 C1.21816406 0.03480469 1.21816406 0.03480469 2.4609375 0.0703125 C3.68683594 0.09738281 3.68683594 0.09738281 4.9375 0.125 C5.87722656 0.15980469 5.87722656 0.15980469 6.8359375 0.1953125 C4.0859375 4.0703125 4.0859375 4.0703125 1.8359375 5.1953125 C1.5059375 4.5353125 1.1759375 3.8753125 0.8359375 3.1953125 C-1.69139485 2.53976131 -1.69139485 2.53976131 -4.1640625 2.1953125 C-2.1640625 0.1953125 -2.1640625 0.1953125 0 0 Z " fill="#1F1762" transform="translate(292.1640625,195.8046875)"/>
<path d="M0 0 C2.97 0.495 2.97 0.495 6 1 C6.33 3.64 6.66 6.28 7 9 C6.01 9.495 6.01 9.495 5 10 C3.35 6.7 1.7 3.4 0 0 Z " fill="#4F24B1" transform="translate(364,151)"/>
<path d="M0 0 C0.66 1.32 1.32 2.64 2 4 C0.38405168 6.04119788 -1.2856382 8.04072937 -3 10 C-3.66 10 -4.32 10 -5 10 C-3.66511872 6.40608886 -2.03977277 3.24509304 0 0 Z " fill="#EADAFB" transform="translate(494,74)"/>
<path d="M0 0 C0.66 0 1.32 0 2 0 C2 0.99 2 1.98 2 3 C-2.38430311 5.07036536 -2.38430311 5.07036536 -5.1875 4.75 C-7 4 -7 4 -9 2 C-6.94921875 1.77213542 -4.8984375 1.54427083 -2.84765625 1.31640625 C-0.98859771 1.18113386 -0.98859771 1.18113386 0 0 Z " fill="#F8E8FE" transform="translate(407,460)"/>
<path d="M0 0 C0.33 0 0.66 0 1 0 C1 2.31 1 4.62 1 7 C1.99 6.67 2.98 6.34 4 6 C4.33 6.99 4.66 7.98 5 9 C6.65 9 8.3 9 10 9 C10 9.33 10 9.66 10 10 C3.9453125 10.1953125 3.9453125 10.1953125 2 10 C0 8 0 8 -0.1953125 6.0546875 C-0.13020833 4.03645833 -0.06510417 2.01822917 0 0 Z " fill="#E9D7FD" transform="translate(396,447)"/>
<path d="M0 0 C0.66 0.33 1.32 0.66 2 1 C0.79157144 5.43090471 -0.51668565 7.98112756 -4 11 C-4 5.95749572 -2.59750368 4.22094347 0 0 Z " fill="#1E2238" transform="translate(360,397)"/>
<path d="M0 0 C0.33 0 0.66 0 1 0 C1.33 2.31 1.66 4.62 2 7 C-0.07553648 7.5534764 -1.84365964 8 -4 8 C-2.87548273 5.0280615 -1.77706209 2.66559313 0 0 Z " fill="#DDDFE5" transform="translate(381,387)"/>
<path d="M0 0 C0.33 0 0.66 0 1 0 C1 4.95 1 9.9 1 15 C0.01 14.34 -0.98 13.68 -2 13 C-1.855625 12.34 -1.71125 11.68 -1.5625 11 C-0.87700084 7.34400449 -0.43824485 3.69377805 0 0 Z " fill="#090A26" transform="translate(273,309)"/>
<path d="M0 0 C0 0.66 0 1.32 0 2 C-0.66 2 -1.32 2 -2 2 C-2.268125 2.639375 -2.53625 3.27875 -2.8125 3.9375 C-4 6 -4 6 -7 7 C-6.67 5.02 -6.34 3.04 -6 1 C-3.92446352 0.4465236 -2.15634036 0 0 0 Z " fill="#110F4D" transform="translate(369,238)"/>
<path d="M0 0 C1.32 0 2.64 0 4 0 C4 0.66 4 1.32 4 2 C5.32 2.33 6.64 2.66 8 3 C8.33 4.65 8.66 6.3 9 8 C7.68388323 7.04663979 6.37221039 6.08714226 5.0625 5.125 C4.33160156 4.59132813 3.60070312 4.05765625 2.84765625 3.5078125 C1 2 1 2 0 0 Z " fill="#202338" transform="translate(500,401)"/>
<path d="M0 0 C0.66 0 1.32 0 2 0 C2 0.66 2 1.32 2 2 C2.66 2.33 3.32 2.66 4 3 C3.360625 3.598125 2.72125 4.19625 2.0625 4.8125 C-0.20310389 6.90810337 -0.20310389 6.90810337 -1 10 C-1.66 10 -2.32 10 -3 10 C-2.01 6.7 -1.02 3.4 0 0 Z " fill="#3E3872" transform="translate(373,215)"/>
<path d="M0 0 C1.23593891 3.70781672 0.5678132 4.67510253 -0.9375 8.1875 C-1.31777344 9.08855469 -1.69804687 9.98960937 -2.08984375 10.91796875 C-2.54037109 11.94857422 -2.54037109 11.94857422 -3 13 C-4.24028683 8.48046996 -3.77524649 6.36443383 -1.4375 2.25 C-0.7259375 1.13625 -0.7259375 1.13625 0 0 Z " fill="#1B1550" transform="translate(303,204)"/>
<path d="M0 0 C4 4.75 4 4.75 4 7 C4.66 7.33 5.32 7.66 6 8 C4.02 8 2.04 8 0 8 C-0.98120464 4.94736336 -0.98120464 3.05263664 0 0 Z " fill="#5138A8" transform="translate(253,122)"/>
<path d="M0 0 C0.99 0.33 1.98 0.66 3 1 C3 1.66 3 2.32 3 3 C4.32 3.66 5.64 4.32 7 5 C6.67 5.99 6.34 6.98 6 8 C4.125 7.75 4.125 7.75 2 7 C0.27898465 4.41847698 0 3.15081975 0 0 Z " fill="#5A24CD" transform="translate(130,75)"/>
<path d="M0 0 C0.66 0.33 1.32 0.66 2 1 C0.98823563 4.40320742 0.35156418 5.75725331 -2.625 7.8125 C-3.40875 8.204375 -4.1925 8.59625 -5 9 C-5 8.01 -5 7.02 -5 6 C-4.34 6 -3.68 6 -3 6 C-2.690625 5.195625 -2.38125 4.39125 -2.0625 3.5625 C-1 1 -1 1 0 0 Z " fill="#681DEE" transform="translate(412,51)"/>
<path d="M0 0 C0.99 0.33 1.98 0.66 3 1 C0.525 5.455 0.525 5.455 -2 10 C-2.33 10 -2.66 10 -3 10 C-3 7.36 -3 4.72 -3 2 C-2.34 2 -1.68 2 -1 2 C-0.67 1.34 -0.34 0.68 0 0 Z " fill="#7139E3" transform="translate(507,47)"/>
<path d="M0 0 C0.33 0 0.66 0 1 0 C1 5.94 1 11.88 1 18 C0.67 18 0.34 18 0 18 C-2.2158855 11.3523435 -1.79321797 6.73146436 0 0 Z " fill="#6C26F0" transform="translate(442,442)"/>
<path d="M0 0 C3.69528813 2.62559946 5.85562438 4.5369351 7 9 C6.67 9.99 6.34 10.98 6 12 C4.99466333 10.37829621 3.99588093 8.75252763 3 7.125 C2.443125 6.22007812 1.88625 5.31515625 1.3125 4.3828125 C0 2 0 2 0 0 Z " fill="#1E2041" transform="translate(258,297)"/>
<path d="M0 0 C0 4.46153846 0 4.46153846 -1 7 C-3.5625 9.25 -3.5625 9.25 -6 11 C-6.33 10.34 -6.66 9.68 -7 9 C-4.69 6.03 -2.38 3.06 0 0 Z " fill="#C9CADB" transform="translate(291,230)"/>
<path d="M0 0 C0.99 0 1.98 0 3 0 C1.55049545 3.7910119 -0.15172566 7.3874638 -2 11 C-2.33 11 -2.66 11 -3 11 C-3 9.35 -3 7.7 -3 6 C-2.34 6 -1.68 6 -1 6 C-0.67 4.02 -0.34 2.04 0 0 Z " fill="#492F9D" transform="translate(457,133)"/>
<path d="M0 0 C3.08089673 2.77280706 4.68775452 5.06326356 6 9 C4.68 8.67 3.36 8.34 2 8 C2 6.35 2 4.7 2 3 C0.68 3.33 -0.64 3.66 -2 4 C-1.34 2.68 -0.68 1.36 0 0 Z " fill="#CBCED8" transform="translate(388,376)"/>
<path d="M0 0 C0.33 0.66 0.66 1.32 1 2 C0.67 2.66 0.34 3.32 0 4 C0.66 4.33 1.32 4.66 2 5 C1.21625 5.103125 0.4325 5.20625 -0.375 5.3125 C-3.33045181 5.77595022 -3.33045181 5.77595022 -5 9 C-5.66 8.67 -6.32 8.34 -7 8 C-4.69 5.36 -2.38 2.72 0 0 Z " fill="#D4D6DE" transform="translate(315,378)"/>
<path d="M0 0 C0.33 0.66 0.66 1.32 1 2 C0.22265625 3.7265625 0.22265625 3.7265625 -0.9375 5.625 C-1.618125 6.73875 -2.29875 7.8525 -3 9 C-3.99 9 -4.98 9 -6 9 C-5.690625 8.401875 -5.38125 7.80375 -5.0625 7.1875 C-3.89790296 4.91043228 -3.89790296 4.91043228 -3 2 C-2.01 1.34 -1.02 0.68 0 0 Z " fill="#151832" transform="translate(369,288)"/>
<path d="M0 0 C1.65 0.33 3.3 0.66 5 1 C4.67 1.99 4.34 2.98 4 4 C2.35 4.33 0.7 4.66 -1 5 C-0.67 3.35 -0.34 1.7 0 0 Z " fill="#F2F2F7" transform="translate(293,227)"/>
<path d="M0 0 C0.66 1.32 1.32 2.64 2 4 C1.01 4.495 1.01 4.495 0 5 C-0.7425 6.2375 -0.7425 6.2375 -1.5 7.5 C-3 10 -3 10 -5 11 C-3.77472971 6.94718288 -2.30119506 3.55639236 0 0 Z " fill="#D4D1E9" transform="translate(432,182)"/>
<path d="M0 0 C0.33 0 0.66 0 1 0 C1.3125 2.1875 1.3125 2.1875 1 5 C-1.5 7.8125 -1.5 7.8125 -4 10 C-4 5.75354935 -2.18249194 3.61475228 0 0 Z " fill="#6A3AD4" transform="translate(398,71)"/>
<path d="M0 0 C2.97 0.33 5.94 0.66 9 1 C8.67 1.66 8.34 2.32 8 3 C5.67843403 3.40729228 3.3431213 3.74438677 1 4 C0.67 2.68 0.34 1.36 0 0 Z " fill="#6120D8" transform="translate(395,457)"/>
<path d="M0 0 C1.32 1.32 2.64 2.64 4 4 C3 7 3 7 2 9 C1.34 9 0.68 9 0 9 C0 6.03 0 3.06 0 0 Z " fill="#6B30D7" transform="translate(391,446)"/>
<path d="M0 0 C1.32 0.66 2.64 1.32 4 2 C3.67 2.99 3.34 3.98 3 5 C-0.3 4.67 -3.6 4.34 -7 4 C-7 3.67 -7 3.34 -7 3 C-3.535 2.505 -3.535 2.505 0 2 C0 1.34 0 0.68 0 0 Z " fill="#7E47DA" transform="translate(406,441)"/>
<path d="M0 0 C0.75 1.6875 0.75 1.6875 1 4 C-0.9375 6.75 -0.9375 6.75 -3 9 C-3 8.01 -3 7.02 -3 6 C-3.66 5.67 -4.32 5.34 -5 5 C-4.67 4.34 -4.34 3.68 -4 3 C-3.34 3 -2.68 3 -2 3 C-1.34 2.01 -0.68 1.02 0 0 Z " fill="#14182F" transform="translate(146,394)"/>
<path d="M0 0 C1.125 3.75 1.125 3.75 0 6 C0.66 6.33 1.32 6.66 2 7 C0.02 7.66 -1.96 8.32 -4 9 C-2.80100302 5.9168649 -1.52299523 2.93720508 0 0 Z " fill="#C9CBD5" transform="translate(152,387)"/>
<path d="M0 0 C0.86325845 2.41712366 1.1132654 3.64990694 0.3125 6.125 C-1.2190732 8.31296172 -2.54765115 9.01906046 -5 10 C-3.66511872 6.40608886 -2.03977277 3.24509304 0 0 Z " fill="#CDCCE1" transform="translate(413,215)"/>
<path d="M0 0 C-2.61514317 2.12038635 -5.19637616 4.13091744 -8 6 C-8.33 5.01 -8.66 4.02 -9 3 C-5.92807025 0.26939578 -4.09590633 -0.34132553 0 0 Z " fill="#E0DFF1" transform="translate(273,200)"/>
<path d="M0 0 C3.37462715 0.54723683 5.08235 1.0549 8 3 C8 3.99 8 4.98 8 6 C5.33333333 4.66666667 2.66666667 3.33333333 0 2 C0 1.34 0 0.68 0 0 Z " fill="#835CCC" transform="translate(289,101)"/>
<path d="M0 0 C1 3 1 3 0.22265625 4.82421875 C-0.8515625 6.54947917 -1.92578125 8.27473958 -3 10 C-3.66 8.68 -4.32 7.36 -5 6 C-4.54625 5.566875 -4.0925 5.13375 -3.625 4.6875 C-1.79975666 2.89201658 -1.79975666 2.89201658 0 0 Z " fill="#572AC8" transform="translate(489,79)"/>
<path d="M0 0 C1.98 0.495 1.98 0.495 4 1 C3.01 2.485 3.01 2.485 2 4 C1.60612212 6.32387947 1.26513915 8.65793749 1 11 C0.67 11 0.34 11 0 11 C-0.19491452 9.54263913 -0.38069358 8.08405407 -0.5625 6.625 C-0.66691406 5.81289063 -0.77132813 5.00078125 -0.87890625 4.1640625 C-1 2 -1 2 0 0 Z " fill="#F0DFFE" transform="translate(271,443)"/>
<path d="M0 0 C0.99 0.33 1.98 0.66 3 1 C2.67 2.65 2.34 4.3 2 6 C0.68 5.67 -0.64 5.34 -2 5 C-2 4.01 -2 3.02 -2 2 C-1.34 2 -0.68 2 0 2 C0 1.34 0 0.68 0 0 Z " fill="#6615F0" transform="translate(387,400)"/>
<path d="M0 0 C2.88437779 1.29299694 4.87219421 2.65941363 7 5 C6.67 5.99 6.34 6.98 6 8 C1.125 3.375 1.125 3.375 0 0 Z " fill="#6032C5" transform="translate(358,143)"/>
<path d="M0 0 C0.66 0.99 1.32 1.98 2 3 C1.125 5.6875 1.125 5.6875 0 8 C-0.99 7.67 -1.98 7.34 -3 7 C-1.125 1.125 -1.125 1.125 0 0 Z " fill="#5B35BF" transform="translate(375,111)"/>
<path d="M0 0 C0.66 0.66 1.32 1.32 2 2 C0.35 4.97 -1.3 7.94 -3 11 C-4.06739919 7.79780242 -4.10959246 7.05137926 -3 4 C-1.4375 1.75 -1.4375 1.75 0 0 Z " fill="#EBE0FC" transform="translate(372,112)"/>
<path d="M0 0 C3.2542015 2.83430453 4.5206753 4.68607774 5 9 C4.34 9 3.68 9 3 9 C0.56839395 5.63316085 0 4.26649636 0 0 Z " fill="#5E3EB8" transform="translate(238,96)"/>
<path d="M0 0 C0.66 0.99 1.32 1.98 2 3 C1.01 4.485 1.01 4.485 0 6 C-0.66 5.34 -1.32 4.68 -2 4 C-4.57061311 3.35232207 -4.57061311 3.35232207 -7 3 C-7 2.67 -7 2.34 -7 2 C-4.69 1.34 -2.38 0.68 0 0 Z " fill="#7E44E5" transform="translate(288,455)"/>
<path d="M0 0 C1.32 0 2.64 0 4 0 C4 0.66 4 1.32 4 2 C6.31 2 8.62 2 11 2 C11 2.33 11 2.66 11 3 C7.37 3 3.74 3 0 3 C0 2.01 0 1.02 0 0 Z " fill="#FBECFF" transform="translate(364,454)"/>
<path d="M0 0 C0.66 1.32 1.32 2.64 2 4 C1.34 4 0.68 4 0 4 C-0.33 4.99 -0.66 5.98 -1 7 C-1.99 7.33 -2.98 7.66 -4 8 C-2.87548273 5.0280615 -1.77706209 2.66559313 0 0 Z " fill="#CDCEE0" transform="translate(398,241)"/>
<path d="M0 0 C-0.49360009 4.27786748 -1.04783565 7.09567131 -3 11 C-3 7.7 -3 4.4 -3 1 C-1 0 -1 0 0 0 Z " fill="#DAD7EC" transform="translate(376,204)"/>
<path d="M0 0 C0.66 0 1.32 0 2 0 C0.7508258 3.45925163 -0.67527795 6.14693203 -3 9 C-3.33 7.68 -3.66 6.36 -4 5 C-2.68 4.34 -1.36 3.68 0 3 C0 2.01 0 1.02 0 0 Z " fill="#502BB3" transform="translate(474,105)"/>
<path d="M0 0 C1.98 0.66 3.96 1.32 6 2 C4.68 3.65 3.36 5.3 2 7 C0 4 0 4 0 0 Z " fill="#763BDB" transform="translate(297,104)"/>
<path d="M0 0 C6.875 3.75 6.875 3.75 8 6 C3.50347222 6.36458333 3.50347222 6.36458333 1.1875 4.6875 C0 3 0 3 0 0 Z " fill="#EBD6FC" transform="translate(290,103)"/>
<path d="M0 0 C3.63 0 7.26 0 11 0 C11 0.33 11 0.66 11 1 C7.37 1.66 3.74 2.32 0 3 C0 2.01 0 1.02 0 0 Z " fill="#FBE9FE" transform="translate(246,445)"/>
<path d="M0 0 C0.99 0.33 1.98 0.66 3 1 C2.67 2.32 2.34 3.64 2 5 C1.34 4.67 0.68 4.34 0 4 C0 4.66 0 5.32 0 6 C-0.66 6 -1.32 6 -2 6 C-1.34 4.02 -0.68 2.04 0 0 Z " fill="#6E36D2" transform="translate(387,396)"/>
<path d="M0 0 C1.485 0.99 1.485 0.99 3 2 C2.67 3.98 2.34 5.96 2 8 C1.01 8 0.02 8 -1 8 C-0.67 5.36 -0.34 2.72 0 0 Z " fill="#C9CBD6" transform="translate(275,259)"/>
<path d="M0 0 C0.33 0.99 0.66 1.98 1 3 C-0.231394 5.46278801 -1.78064923 6.42497687 -4 8 C-4.66 7.67 -5.32 7.34 -6 7 C-4.02 4.69 -2.04 2.38 0 0 Z " fill="#CFCCE6" transform="translate(237,185)"/>
<path d="M0 0 C0.99 0.33 1.98 0.66 3 1 C4.6875 4.5625 4.6875 4.5625 6 8 C5.01 8.495 5.01 8.495 4 9 C0 2.25 0 2.25 0 0 Z " fill="#3C2983" transform="translate(172,150)"/>
<path d="M0 0 C0.66 0.33 1.32 0.66 2 1 C2 2.65 2 4.3 2 6 C0.35 6.33 -1.3 6.66 -3 7 C-1.125 2.25 -1.125 2.25 0 0 Z " fill="#6432D2" transform="translate(392,81)"/>
<path d="M0 0 C0.33 0 0.66 0 1 0 C0.67 2.31 0.34 4.62 0 7 C-0.99 7 -1.98 7 -3 7 C-1.125 1.125 -1.125 1.125 0 0 Z " fill="#6B35D6" transform="translate(402,64)"/>
<path d="M0 0 C2.64 0 5.28 0 8 0 C8 0.33 8 0.66 8 1 C7.030625 1.12375 6.06125 1.2475 5.0625 1.375 C3.5465625 1.684375 3.5465625 1.684375 2 2 C1.67 2.66 1.34 3.32 1 4 C0.01 4 -0.98 4 -2 4 C-1.34 2.68 -0.68 1.36 0 0 Z " fill="#E2C6FA" transform="translate(279,445)"/>
<path d="M0 0 C0.33 1.32 0.66 2.64 1 4 C0.01 4.495 0.01 4.495 -1 5 C-1.33 5.99 -1.66 6.98 -2 8 C-2.66 8 -3.32 8 -4 8 C-2.87548273 5.0280615 -1.77706209 2.66559313 0 0 Z " fill="#D4D5E0" transform="translate(158,378)"/>
<path d="M0 0 C2.29013653 3.4352048 2.17842973 4.985331 2 9 C0.4375 7.875 0.4375 7.875 -1 6 C-0.6875 2.8125 -0.6875 2.8125 0 0 Z " fill="#1C1E43" transform="translate(245,270)"/>
<path d="M0 0 C0.66 0.99 1.32 1.98 2 3 C0.84826645 5.46800047 -0.04783565 7.04783565 -2 9 C-1.125 2.25 -1.125 2.25 0 0 Z " fill="#BBBBCF" transform="translate(278,250)"/>
<path d="M0 0 C0 0.99 0 1.98 0 3 C-1.98 3 -3.96 3 -6 3 C-6.33 2.34 -6.66 1.68 -7 1 C-4.53721199 -0.231394 -2.7204945 -0.07159196 0 0 Z " fill="#ECECF6" transform="translate(257,213)"/>
<path d="M0 0 C0.33 0 0.66 0 1 0 C1.33 2.64 1.66 5.28 2 8 C0.68 8.33 -0.64 8.66 -2 9 C-1.34 6.03 -0.68 3.06 0 0 Z " fill="#BDBBD0" transform="translate(304,203)"/>
<path d="M0 0 C0.33 0.66 0.66 1.32 1 2 C-0.8125 5 -0.8125 5 -3 8 C-3.99 8 -4.98 8 -6 8 C-4.02 5.36 -2.04 2.72 0 0 Z " fill="#C3BDE1" transform="translate(244,175)"/>
<path d="M0 0 C1 3 1 3 -0.4375 6.1875 C-1.2109375 7.5796875 -1.2109375 7.5796875 -2 9 C-2.66 8.67 -3.32 8.34 -4 8 C-2.87548273 5.0280615 -1.77706209 2.66559313 0 0 Z " fill="#DCD4F3" transform="translate(450,151)"/>
<path d="M0 0 C-2.57213134 1.61949011 -3.67669159 2.04408751 -6.75 1.625 C-7.4925 1.41875 -8.235 1.2125 -9 1 C-8 -1 -8 -1 -6.1875 -1.75 C-3.50171361 -2.05694702 -2.2747813 -1.38111722 0 0 Z " fill="#4228A1" transform="translate(277,122)"/>
<path d="M0 0 C0.33 0 0.66 0 1 0 C1.36923077 4.55384615 1.36923077 4.55384615 -0.5 6.8125 C-0.995 7.204375 -1.49 7.59625 -2 8 C-2.33 7.01 -2.66 6.02 -3 5 C-1.625 2.3125 -1.625 2.3125 0 0 Z " fill="#5D38BD" transform="translate(379,104)"/>
<path d="M0 0 C0.99 0 1.98 0 3 0 C3 0.99 3 1.98 3 3 C3.66 3.33 4.32 3.66 5 4 C3.68 4.33 2.36 4.66 1 5 C0.34 3.68 -0.32 2.36 -1 1 C-0.67 0.67 -0.34 0.34 0 0 Z " fill="#6C23EB" transform="translate(302,108)"/>
<path d="M0 0 C1.32 0 2.64 0 4 0 C3.67 1.65 3.34 3.3 3 5 C2.01 5 1.02 5 0 5 C0 3.35 0 1.7 0 0 Z " fill="#6420E9" transform="translate(507,42)"/>
</svg>
